<?xml version="1.0" standalone="no"?>
<!DOCTYPE svg PUBLIC "-//W3C//DTD SVG 1.1//EN" "http://www.w3.org/Graphics/SVG/1.1/DTD/svg11.dtd" >
<svg xmlns="http://www.w3.org/2000/svg">
<metadata></metadata>
<defs>
<font id="NeoplantaBGItalic" horiz-adv-x="864" >
<font-face units-per-em="2048" ascent="1561" descent="-487" />
<missing-glyph horiz-adv-x="409" />
<glyph horiz-adv-x="0" />
<glyph horiz-adv-x="2048" />
<glyph unicode=" "  horiz-adv-x="409" />
<glyph unicode="&#x09;" horiz-adv-x="409" />
<glyph unicode="&#xa0;" horiz-adv-x="409" />
<glyph unicode="!" horiz-adv-x="630" d="M82 102q0 52 33 93t82 41q46 0 75 -33.5t29 -81.5q0 -52 -33 -92.5t-82 -40.5q-46 0 -75 33t-29 81zM215 350l59 285q3 46 9 114t15.5 173.5t16.5 185.5q35 369 164 369q53 0 81 -38t28 -104q0 -136 -111 -397q-11 -26 -54 -136.5t-75 -183.5l-84 -284z" />
<glyph unicode="&#x22;" horiz-adv-x="610" d="M92 1458q0 105 74 105t74 -105q0 -72 -23 -196q-29 -156 -29 -203h-45q0 68 -26 201q-25 133 -25 198zM371 1458q0 105 73 105q74 0 74 -105q0 -78 -22 -196q-29 -156 -29 -203h-45q0 63 -27 201q-24 128 -24 198z" />
<glyph unicode="#" horiz-adv-x="1607" d="M88 541l33 104h362q22 72 64.5 200t50.5 154h-365l37 107h361l168 526l110 2l-168 -528h310l163 526l113 2l-166 -528h369l-35 -107h-367l-110 -354h362l-32 -104h-363l-178 -574l-102 33l169 541h-313l-180 -568l-100 33l170 535h-363zM596 645h311l111 354h-311z" />
<glyph unicode="%" horiz-adv-x="1730" d="M152 995q0 84 25 178.5t70.5 179t119 140t159.5 55.5q53 0 94.5 -18.5t68 -48.5t44 -71.5t24.5 -85t7 -91.5q0 -66 -15.5 -140.5t-47.5 -148t-75.5 -132.5t-105 -95.5t-131.5 -36.5q-65 0 -113 27t-74 74t-38 100t-12 114zM199 -410l1056 2003l64 -32l-1055 -2007z M268 950q0 -125 28 -182t95 -57q62 0 113.5 68.5t81 165t45.5 186t16 147.5q0 125 -28 182.5t-95 57.5q-62 0 -113.5 -68.5t-81 -165.5t-45.5 -186.5t-16 -147.5zM924 305q0 84 25 178.5t70.5 179t119 140t159.5 55.5q53 0 94.5 -18.5t68 -48.5t44 -71.5t24.5 -85t7 -91.5 q0 -66 -15.5 -140.5t-47.5 -148t-75.5 -132.5t-105 -95.5t-131.5 -36.5q-65 0 -113 27t-74 74t-38 100t-12 114zM1040 260q0 -125 28 -182.5t95 -57.5q62 0 113.5 68.5t81 165.5t45.5 186.5t16 147.5q0 125 -28 182t-95 57q-62 0 -113.5 -68.5t-81 -165t-45.5 -186 t-16 -147.5z" />
<glyph unicode="&#x26;" horiz-adv-x="1675" d="M117 311q0 205 138.5 322t387.5 117l2 6q-124 15 -195 85.5t-71 178.5q0 189 135.5 297t376.5 108q143 0 237 -84.5t82 -205.5q-6 -82 -55 -137.5t-129 -55.5q-160 0 -160 154q0 64 41.5 103t104.5 36q110 -6 110 -115q0 -105 -100 -119l4 -4q2 0 11 -2.5t14 -1.5 q51 4 80.5 46.5t29.5 105.5q0 97 -67 158t-174 61q-65 0 -126 -26.5t-108.5 -73.5t-76.5 -120.5t-29 -160.5q0 -106 68 -163.5t188 -57.5h75l-10 -51h-176q-168 -3 -282.5 -125t-114.5 -293q0 -130 79.5 -196t223.5 -66q189 0 327 136.5t166 340.5h-123q-128 0 -182 -14 q-50 -17 -78 -61t-28 -99q0 -41 22.5 -80t48.5 -39q9 0 19 10q3 3 -5 19.5t-18 37.5t-10 31q0 39 28.5 74t69.5 35q43 0 71 -32t28 -75q0 -55 -49 -98t-101 -43q-58 0 -100.5 44t-42.5 104q0 153 115.5 241t306.5 88h186q157 0 195 17q39 15 63.5 57.5t24.5 97.5 q0 37 -22.5 76t-49.5 39q-26 0 -8 -40q21 -51 22 -56q0 -39 -28.5 -75t-69.5 -36q-40 0 -69 33.5t-29 75.5q0 53 46.5 97t104.5 44q59 0 100 -43t44 -104q3 -151 -115 -238.5t-305 -87.5h-10q-44 -256 -192 -391t-384 -135q-249 0 -366 81.5t-117 247.5z" />
<glyph unicode="'" horiz-adv-x="331" d="M92 1458q0 105 74 105t74 -105q0 -72 -23 -196q-29 -156 -29 -203h-45q0 68 -26 201q-25 133 -25 198z" />
<glyph unicode="(" horiz-adv-x="702" d="M92 326q0 384 184.5 714.5t524.5 556.5l28 -30v-8q-208 -146 -355.5 -364t-219 -474.5t-64.5 -530.5q9 -322 121 -567l-49 -24q-170 342 -170 727z" />
<glyph unicode=")" horiz-adv-x="700" d="M-127 -362q206 145 351.5 357t216.5 455.5t71 505.5q0 353 -121 617l49 24q168 -338 168 -725q0 -385 -183 -716.5t-523 -556.5l-29 30v9z" />
<glyph unicode="*" horiz-adv-x="933" d="M203 1272q41 14 117 21.5t106 15.5q-30 27 -92.5 67t-91.5 64q18 35 59 65q31 -29 75.5 -91.5t65.5 -84.5q9 39 13 113t12 112q37 0 84 -18q-8 -43 -41 -113t-41 -100q38 13 104 46t103 46q23 -29 26 -82q-40 -14 -116.5 -20.5t-106.5 -14.5q29 -26 92 -66.5t93 -66.5 q-25 -41 -60 -63q-32 28 -77 91.5t-64 84.5q-9 -40 -13 -113.5t-12 -111.5q-38 -3 -84 18q8 42 41 112t41 99q-39 -12 -105 -45.5t-102 -46.5q-23 33 -26 82z" />
<glyph unicode="+" horiz-adv-x="1245" d="M123 635v65h465v469h69v-469h465v-65h-465v-479h-69v479h-465z" />
<glyph unicode="," horiz-adv-x="391" d="M66 -262q149 152 149 233q0 14 -6 18.5t-21 4.5q-108 0 -108 102q0 50 26.5 86.5t69.5 36.5q58 0 87.5 -48t29.5 -116q0 -158 -193 -348z" />
<glyph unicode="-" horiz-adv-x="788" d="M123 629v78h543v-78h-543z" />
<glyph unicode="." horiz-adv-x="423" d="M82 106q0 50 33 92t82 42q48 0 76 -33t28 -82q0 -50 -33 -91.5t-82 -41.5q-48 0 -76 32.5t-28 81.5z" />
<glyph unicode="/" horiz-adv-x="845" d="M45 -197l641 1809l64 -21l-644 -1806z" />
<glyph unicode="0" horiz-adv-x="1222" d="M102 508q0 91 18.5 193t53 205t89 196.5t121.5 166t156 115.5t187 43q87 0 156 -30.5t112.5 -81t72.5 -120t40.5 -142t11.5 -152.5q0 -91 -18.5 -193t-53 -205t-89 -196.5t-121 -166t-155.5 -115.5t-187 -43q-87 0 -156 30.5t-113 81t-73 120t-40.5 142t-11.5 152.5z M295 430q0 -206 47 -301.5t160 -95.5q83 0 156 76.5t121 190.5t83 247t50.5 245.5t15.5 186.5q0 206 -47 301.5t-160 95.5q-83 0 -156 -76.5t-121 -190.5t-83 -247t-50.5 -245.5t-15.5 -186.5z" />
<glyph unicode="1" horiz-adv-x="882" d="M37 0v37q115 0 164 43.5t78 161.5l219 927l-9 5q-187 -88 -344 -119l-10 51q339 80 551 311h53l-295 -1212q-10 -48 -10 -72q0 -57 39 -75.5t135 -20.5v-37h-571z" />
<glyph unicode="2" horiz-adv-x="1103" d="M14 0q1 73 26.5 137.5t76.5 123.5t101.5 102.5t129.5 103.5q49 37 76 58t71.5 58t71 62.5t63 63.5t58.5 69t46.5 72.5t37.5 80.5t22 85t9 94q0 138 -61 202t-160 64q-92 0 -181 -64t-104 -141q0 -14 9 -22t34 -12q31 -7 50.5 -36.5t19.5 -64.5q0 -42 -28.5 -77t-72.5 -35 q-42 0 -74 32.5t-32 85.5q0 155 121.5 271.5t287.5 116.5q105 0 195 -39t148.5 -119.5t58.5 -186.5q0 -62 -16.5 -120t-42.5 -104.5t-69.5 -93.5t-84 -82t-100.5 -75t-105.5 -66.5t-110.5 -62.5q-183 -101 -297 -229l7 -6q34 20 73 20h11q47 0 190 -45q139 -43 205 -43 q47 0 83 18.5t60 55t39 75t29 93.5l51 -10q-82 -426 -313 -426q-49 0 -108 30t-104 66t-98.5 66t-93.5 30q-66 0 -105.5 -49.5t-47.5 -126.5h-52z" />
<glyph unicode="3" horiz-adv-x="1110" d="M45 244q0 96 38.5 156.5t109.5 60.5q41 0 67.5 -27.5t26.5 -71.5q0 -59 -32 -95t-87 -42l-39 -4q-12 -12 -12 -33q0 -56 77.5 -105.5t170.5 -49.5q158 0 251 105t93 278q0 59 -14.5 111t-45 95.5t-83 69t-122.5 25.5q-18 0 -47 -2v51h54q160 0 267 114.5t107 282.5 q0 88 -58.5 147.5t-182.5 59.5q-64 0 -147 -40.5t-83 -88.5q0 -9 15.5 -23.5t31 -40.5t15.5 -63q0 -39 -33.5 -74.5t-75.5 -35.5q-45 0 -70.5 24.5t-25.5 67.5q0 127 129 227t307 100q74 0 140 -15t121.5 -46t88.5 -84.5t33 -122.5q0 -132 -119 -254t-301 -156l-2 -6 q301 -59 301 -305q0 -107 -46 -195t-122 -143t-168.5 -84.5t-189.5 -29.5q-149 0 -243.5 69.5t-94.5 192.5z" />
<glyph unicode="4" horiz-adv-x="1028" d="M2 354q0 5 2 21t2 20q52 57 99.5 120t94.5 141.5t80 135t81 156.5t70 146t75 163t69 152h179q34 0 34 -37q0 -36 -30 -80q-180 -268 -334 -475t-330 -397v-10h453q39 172 127 524q199 111 207 115l-162 -639h192l-10 -52h-190l-39 -174q-8 -27 -8 -55q0 -56 41.5 -73 t134.5 -19v-37h-574v37q67 0 102.5 5t65 25t45 55.5t29.5 100.5l29 131h-535z" />
<glyph unicode="5" horiz-adv-x="1069" d="M51 270q0 98 46 157.5t110 59.5q53 0 80.5 -33t27.5 -77q0 -48 -25 -80.5t-77 -32.5q-15 0 -37.5 11.5t-34.5 11.5q-16 0 -22 -11.5t-6 -37.5q0 -106 77 -158.5t185 -52.5q147 0 238.5 123t91.5 315q0 58 -13.5 112t-41.5 102.5t-77.5 77.5t-113.5 29q-73 0 -130.5 -28.5 t-121.5 -98.5l-43 27l170 719q4 11 39.5 20t60.5 9q35 0 61 -20t35 -54q15 -54 24 -81t26 -62.5t36 -51.5t49 -27.5t70 -11.5q39 0 77 18t38 50q0 9 -12 16.5t-27 14t-27 28t-12 54.5q0 51 34 89t85 38q50 0 76 -26.5t26 -74.5q0 -110 -82.5 -184t-183.5 -74 q-82 0 -146.5 17.5t-96.5 38t-64.5 38t-57.5 17.5q-4 0 -24 -4l-100 -408l8 -2q95 66 219 66q109 0 195 -29t138.5 -79.5t79.5 -114.5t27 -138q0 -89 -38 -177t-106 -159.5t-173 -116t-228 -44.5q-138 0 -223.5 72t-85.5 218z" />
<glyph unicode="6" horiz-adv-x="1138" d="M121 453q0 161 38.5 312t106 270t154.5 209t189.5 138t205.5 48q134 0 206.5 -66.5t72.5 -175.5q0 -62 -34 -105t-95 -43q-43 0 -72 29t-29 78q0 42 28 75t71 33q36 0 36 19q0 50 -54 76t-130 26q-70 0 -130 -23t-103.5 -60t-80.5 -93.5t-61.5 -113t-45 -129.5 t-33 -132.5t-23.5 -132.5h10q47 80 131 134.5t187 54.5q146 0 235.5 -88.5t89.5 -237.5q0 -103 -30.5 -196.5t-82.5 -162t-118.5 -119.5t-140.5 -76.5t-146 -25.5q-76 0 -136.5 26t-100 70.5t-66 106.5t-38 130t-11.5 145zM301 246q8 -101 54.5 -160t123.5 -59 q80 0 143.5 51.5t99.5 133t54.5 169t18.5 170.5q0 44 -6 85t-21.5 85.5t-49 72t-81.5 27.5q-72 0 -132 -40.5t-96.5 -101.5t-62 -137.5t-35.5 -143.5t-10 -124v-28z" />
<glyph unicode="7" horiz-adv-x="931" d="M119 864l125 549h53l-43 -190l10 -2q56 100 118 152t140 52q50 0 83 -28t50 -68t33.5 -80t44.5 -68t70 -28q65 0 109 65t53 187v8h51q-3 -180 -125 -344q-436 -585 -436 -946q-5 -79 -14 -101t-44 -22h-180q18 443 653 1118l-8 8q-53 -26 -119 -26q-45 0 -87 18t-69.5 39 t-68.5 39t-84 18q-49 0 -93.5 -31.5t-78 -84.5t-58 -112.5t-40.5 -125.5q-21 0 -45 4z" />
<glyph unicode="8" horiz-adv-x="1005" d="M39 305q0 311 301 422q-131 104 -131 297q0 168 110 285.5t283 117.5q145 0 235.5 -88.5t90.5 -238.5q0 -99 -82 -201t-189 -143q109 -65 159 -145t50 -187q0 -118 -64.5 -220.5t-172.5 -162t-230 -59.5q-94 0 -175 37t-133 112t-52 174zM135 309q0 -124 68 -200t198 -76 q131 0 214 82.5t83 212.5q0 33 -5 62t-18.5 56t-26 47.5t-38.5 44t-44 39t-55 39.5t-59.5 37.5t-68.5 40.5q-248 -119 -248 -385zM338 1124q0 -51 16.5 -95.5t49.5 -81t65 -62.5t80 -58l59 -39q102 28 162.5 119t60.5 201q0 121 -61.5 202t-173.5 81t-185 -77t-73 -190z" />
<glyph unicode="9" horiz-adv-x="1148" d="M84 211q2 57 38 102t95 45q37 -2 66.5 -30t29.5 -76q0 -53 -32 -82t-82 -29q-9 0 -15 -6t-6 -14q0 -45 55 -71.5t129 -26.5q70 0 130 23.5t103.5 60.5t80.5 94t61 113t45.5 130t33.5 132t24 131h-11q-47 -80 -130.5 -134.5t-186.5 -54.5q-148 0 -236 86.5t-88 239.5 q0 128 46.5 240t121 185.5t166.5 115.5t183 42q92 0 161.5 -38.5t110 -106t60.5 -152.5t20 -186q0 -166 -38 -318.5t-104.5 -270.5t-153.5 -205.5t-190 -134t-209 -46.5q-134 0 -206 65.5t-72 176.5zM383 838q0 -44 6 -84t21.5 -82.5t48 -67.5t78.5 -26h2q76 0 137 39.5 t97.5 99.5t61 135.5t33.5 141.5t9 124q0 42 -9.5 84t-29 82.5t-56 66t-84.5 25.5q-80 0 -143.5 -52.5t-99 -135.5t-54 -173t-18.5 -177z" />
<glyph unicode=":" horiz-adv-x="552" d="M123 240q0 50 33 91.5t82 41.5q48 0 76 -33t28 -82q0 -50 -33 -91.5t-82 -41.5q-48 0 -76 33t-28 82zM211 758q0 50 33 91.5t82 41.5q48 0 76 -33t28 -82q0 -50 -33 -91.5t-82 -41.5q-48 0 -76 33t-28 82z" />
<glyph unicode=";" horiz-adv-x="573" d="M123 -262q149 152 149 233q0 14 -6 18.5t-26 4.5q-103 0 -103 102q0 50 26.5 86.5t69.5 36.5q58 0 87.5 -48t29.5 -116q0 -159 -192 -348zM231 643q0 50 33 91.5t82 41.5q48 0 76.5 -32.5t28.5 -81.5q0 -50 -33 -92t-82 -42q-48 0 -76.5 33t-28.5 82z" />
<glyph unicode="=" horiz-adv-x="1245" d="M123 506v65h999v-65h-999zM123 774v66h999v-66h-999z" />
<glyph unicode="?" d="M168 98q0 49 32.5 91t82.5 42q45 0 74.5 -33t29.5 -83q0 -49 -32.5 -91t-82.5 -42q-45 0 -74.5 33t-29.5 83zM197 999q0 78 25.5 160.5t70.5 153.5t117 116.5t155 45.5q139 0 214 -77t75 -216q0 -61 -13.5 -117t-32.5 -98.5t-58 -97t-69.5 -91t-88.5 -100.5 q-168 -188 -230 -344l-51 8q18 76 160 330q118 212 160.5 327.5t42.5 219.5q0 36 -5 67t-17.5 64t-40 52t-66.5 19q-67 0 -132.5 -53t-104 -129.5t-38.5 -146.5q0 -15 15 -21t36 -10t42 -12t36 -34.5t15 -70.5q0 -42 -28 -73t-75 -31q-45 0 -79.5 42t-34.5 117z" />
<glyph unicode="@" horiz-adv-x="1705" d="M109 633q7 148 57.5 278t129.5 222.5t178.5 159.5t206 99.5t210.5 32.5q185 0 326.5 -67t221 -195.5t79.5 -300.5q0 -87 -26 -178.5t-71.5 -170t-118 -129t-155.5 -50.5q-95 0 -142 62t-47 147v20q-104 -209 -233 -209q-61 0 -109 34.5t-73.5 88t-36 114.5t-4.5 118 q22 179 131.5 294t253.5 115q121 0 147 -133q24 90 31 121h135l-135 -631q0 -46 24.5 -69t84.5 -23q76 0 146.5 79t110 189t39.5 209q0 103 -37.5 195.5t-107.5 165.5t-182.5 116t-251.5 43q-122 0 -224.5 -43t-174 -117t-121.5 -174t-73.5 -212.5t-23.5 -233.5 q0 -89 13.5 -166.5t49 -153t91 -129t146 -86t208.5 -32.5q302 0 512 231l27 -37q-66 -75 -147 -127t-158.5 -75t-134 -32t-105.5 -9q-124 0 -225.5 24t-170.5 63.5t-121 95t-81 113t-46 123.5t-21.5 120.5t-1.5 109.5zM639 567q0 -166 86 -166q63 0 124.5 79.5t98.5 195 t37 221.5q0 174 -92 174q-60 0 -121 -91.5t-97 -209t-36 -203.5z" />
<glyph unicode="A" horiz-adv-x="1255" d="M-164 0v37q154 3 244 129q41 60 151 260l613 1110h139l53 -1282q2 -67 10.5 -104.5t32.5 -65t65 -37t111 -10.5v-37h-645v37q47 0 76.5 2t64.5 9.5t54.5 22.5t33 42.5t13.5 66.5q0 6 -16 387h-465l-113 -200q-80 -143 -80 -228q0 -61 36.5 -81.5t125.5 -20.5v-37h-504z M395 621h439l-31 696h-19z" />
<glyph unicode="B" horiz-adv-x="1312" d="M-31 0v37q66 0 108 7t77.5 28t57 59.5t36.5 101.5l250 1078q8 36 8 71q0 62 -40 88.5t-132 28.5l2 37h498q242 0 355.5 -71.5t113.5 -215.5q0 -178 -134 -307.5t-342 -146.5l-2 -11q392 -49 392 -335q0 -208 -164 -328.5t-492 -120.5h-592zM428 156q0 -50 29.5 -76.5 t101.5 -26.5q235 0 340 108t105 349q0 252 -345 252h-100l-115 -502q-16 -74 -16 -104zM571 817h103q189 0 305.5 130t116.5 327q0 109 -60.5 159t-183.5 50h-125z" />
<glyph unicode="C" horiz-adv-x="1251" d="M190 553q0 114 24 233.5t67.5 231t107.5 211t140 173t170.5 116.5t193.5 43q72 0 133 -22.5t93.5 -49.5t64.5 -49.5t55 -22.5q68 0 107 121h34l-151 -649q-6 0 -26.5 1t-26.5 1q22 74 22 172q0 80 -16.5 155.5t-49.5 142t-91 106.5t-134 40q-128 0 -232 -123.5 t-173 -326.5q-44 -127 -83.5 -303.5t-39.5 -335.5q0 -391 285 -391q88 0 160 32t119.5 82t85.5 124.5t59 144t40 157.5l54 -2q-16 -91 -41 -170.5t-67.5 -159t-97.5 -135t-136 -90.5t-178 -35q-90 0 -168 35.5t-133 94t-94 133.5t-58 155.5t-19 159.5z" />
<glyph unicode="D" horiz-adv-x="1470" d="M-31 0v37q66 0 107 6.5t78 26.5t59.5 59.5t36.5 103.5l248 1080q8 33 8 65q0 65 -46 91.5t-143 29.5v37h445q137 0 238.5 -14t190.5 -51t144.5 -99.5t87 -161.5t31.5 -235q0 -207 -65.5 -386t-184 -309.5t-295 -205t-387.5 -74.5h-553zM428 154q0 -101 111 -101 q135 0 248.5 52t194 142.5t137 212.5t83.5 261.5t27 290.5q0 240 -100.5 355.5t-303.5 115.5h-98q-51 -226 -148.5 -645t-132.5 -572q-18 -83 -18 -112z" />
<glyph unicode="E" horiz-adv-x="1292" d="M-20 0v37q121 0 181 40t87 156l250 1080q8 33 8 67q0 63 -41.5 89.5t-136.5 29.5v37h1042l-133 -565h-53q37 174 37 256q0 121 -67 188.5t-230 67.5h-199l-152 -645h68q34 0 61 2t50.5 7.5t41 11t33.5 18.5t26.5 23t21.5 31t18 36.5t16 46t15 52.5t16 62h53l-174 -745 h-53l8 37q29 131 29 194q0 79 -39.5 124.5t-136.5 45.5h-64l-127 -546q-18 -70 -18 -103q0 -41 28.5 -61.5t98.5 -20.5h41q229 0 351.5 126.5t190.5 408.5h54q-22 -95 -68.5 -289.5t-69.5 -298.5h-1064z" />
<glyph unicode="F" horiz-adv-x="1177" d="M-18 0v37q124 0 182 38.5t86 157.5l248 1078q8 36 8 69q0 62 -41 89t-135 30v37h1042l-131 -565h-55q31 151 31 231q0 130 -65.5 205.5t-225.5 75.5h-197l-154 -645h68q42 0 74 3t58 12t44.5 17.5t34.5 28t26 35t21 47t17.5 55.5t17.5 68l6 24h53l-174 -745h-53 q31 139 31 207q0 194 -189 194h-45l-121 -526q-16 -69 -16 -108q0 -59 38.5 -85.5t135.5 -27.5v-37h-620z" />
<glyph unicode="G" horiz-adv-x="1355" d="M190 567q0 58 11.5 136t38.5 173.5t65 190t97 184.5t129 158.5t165.5 110t202.5 41.5q144 0 277 -113q39 -31 73 -31q64 0 101 119h34q-26 -114 -77 -330t-74 -319h-53q18 99 18 182q0 67 -9 127.5t-31.5 118.5t-56 99.5t-85.5 67t-117 25.5q-76 0 -144.5 -49t-119 -129 t-93.5 -183.5t-71 -210.5t-48 -212t-29 -187.5t-9 -136.5q0 -76 15 -141.5t44.5 -117t78.5 -81.5t112 -30q62 0 112.5 19.5t84.5 50.5t62 79.5t45.5 95.5t33.5 109q33 123 33 184q0 68 -54 94.5t-143 28.5v37h616v-35l-2 -2q-46 -2 -79.5 -8.5t-58.5 -24.5t-41 -36.5 t-30.5 -57t-23.5 -72.5t-23 -96q-5 -23 -38.5 -170.5t-49.5 -224.5h-37q0 5 1 28t1 38q0 88 -40 88q-20 0 -45.5 -18.5t-54.5 -45t-64.5 -52.5t-89.5 -44.5t-115 -18.5q-140 0 -242 78t-152.5 210.5t-50.5 303.5z" />
<glyph unicode="H" horiz-adv-x="1574" d="M-31 0v37q66 0 107 6.5t78 27t59.5 59.5t36.5 103l248 1080q10 48 10 73q0 61 -45 87t-141 26v37h643v-37q-138 0 -196 -51t-91 -188l-105 -443h629l113 496q8 33 8 73q0 62 -44.5 87.5t-141.5 25.5v37h645v-35l-2 -2q-139 -4 -196 -52t-89 -187l-231 -1000 q-15 -73 -15 -98q0 -66 43 -94t148 -31v-37h-654v37q66 0 107 6.5t78 27t59.5 59.5t36.5 103l123 531h-629l-115 -504q-14 -72 -14 -102q0 -66 43.5 -92.5t147.5 -28.5v-37h-654z" />
<glyph unicode="I" horiz-adv-x="753" d="M-33 0v37q58 0 95 4t69.5 15.5t52.5 34.5t35.5 57.5t28.5 87.5l248 1073q8 36 8 67q0 65 -44.5 92.5t-142.5 30.5v37h646v-35l-2 -2q-77 0 -124 -10.5t-78.5 -39.5t-49 -70t-33.5 -113l-232 -1000q-16 -72 -16 -112q0 -66 43.5 -91.5t149.5 -25.5v-37h-654z" />
<glyph unicode="J" horiz-adv-x="958" d="M23 246q0 39 8.5 79t27 78t52.5 62t79 24q44 0 76.5 -31t32.5 -83q0 -72 -40.5 -116t-96.5 -44q-10 0 -28 6t-25 6q-23 0 -23 -45q0 -59 52 -102t112 -43q94 0 149 63t86 199l234 1012q10 42 10 69q0 119 -168 119h-14v37h614v-35l-2 -2q-59 -2 -98 -11t-65.5 -23.5 t-45 -45t-30 -64.5t-25.5 -95l-217 -941q-36 -152 -141.5 -243.5t-251.5 -91.5q-74 0 -127 22t-81.5 61t-41 83t-12.5 96z" />
<glyph unicode="K" horiz-adv-x="1378" d="M-12 0v37q119 0 176.5 40t85.5 159l248 1077q10 48 10 73q0 60 -39.5 85t-130.5 28v37h573v-37q-44 -2 -74 -6.5t-54 -17.5t-38 -27t-27 -44.5t-21.5 -59.5t-20.5 -82l-111 -476l490 433q42 38 63.5 59t45.5 60.5t24 74.5q0 29 -13.5 47.5t-41 26.5t-50 10t-57.5 2h-10 v37h573v-35l-2 -2q-88 -4 -163 -43.5t-156 -112.5l-385 -346l225 -761q33 -109 92.5 -153.5t179.5 -45.5v-37h-637v37q98 0 142.5 25.5t44.5 87.5q0 35 -19 100l-182 610l-182 -162l-127 -575q-2 -6 -2 -17q0 -69 151 -69v-37h-581z" />
<glyph unicode="L" horiz-adv-x="1214" d="M-31 0v37q129 0 192 40.5t91 160.5l246 1075q8 33 8 63q0 66 -45 93t-144 30v37h650v-37q-136 0 -196.5 -46.5t-90.5 -180.5l-238 -1028q-12 -55 -12 -92q0 -50 31.5 -74.5t109.5 -24.5h41q226 0 355 127.5t204 407.5h37l-137 -588h-1102z" />
<glyph unicode="M" horiz-adv-x="1677" d="M-49 0v37q134 3 210 80.5t111 226.5l215 924q21 89 21 125q0 56 -39.5 80.5t-140.5 25.5v37h424l82 -1174l616 1174h444v-35l-2 -2q-141 -5 -202.5 -54.5t-92.5 -184.5l-227 -996q-14 -68 -14 -100q0 -65 43 -94t147 -33v-37h-616v37q70 0 110 9t67 38.5t40.5 67 t30.5 112.5l254 1094l-13 4l-714 -1362h-33l-97 1360l-12 2l-237 -1026q-27 -119 -27 -166q0 -61 35.5 -94t124.5 -39v-37h-508z" />
<glyph unicode="N" horiz-adv-x="1398" d="M-53 0v37q72 1 124 20.5t86 60.5t55 91t38 125l215 928q12 54 12 98q0 119 -82 135q-28 4 -98 4v37h330l448 -1159l209 887q12 47 12 88q0 142 -172 147v37h500v-35l-2 -2q-127 -5 -191.5 -55.5t-93.5 -177.5l-288 -1266h-31l-494 1282l-221 -948q-27 -118 -27 -166 q0 -64 36 -97.5t126 -33.5v-37h-491z" />
<glyph unicode="O" horiz-adv-x="1355" d="M190 600q0 155 35 295q27 112 82 224.5t134 213.5t189 164.5t230 63.5q96 0 175 -32t134.5 -89t94.5 -136t57 -171.5t18 -196.5q0 -159 -34 -295q-27 -112 -82 -224.5t-134 -213.5t-189 -164.5t-230 -63.5q-96 0 -175 32t-135 89t-94.5 136t-57 171.5t-18.5 196.5z M379 436q0 -407 280 -407q63 0 119.5 32.5t100 90t78.5 122.5t63 145.5t45.5 142t32.5 128.5q53 226 53 410q0 67 -8 124t-27.5 110.5t-50.5 90.5t-81 59.5t-114 22.5q-54 0 -104 -25.5t-88.5 -65.5t-74 -98.5t-60.5 -116t-48 -126.5t-36.5 -121t-26.5 -108 q-53 -226 -53 -410z" />
<glyph unicode="P" horiz-adv-x="1210" d="M-16 0v37q130 0 183.5 38.5t80.5 157.5l248 1076q8 33 8 63q0 62 -42.5 93t-129.5 34v37h497q50 0 93 -2.5t95 -10.5t93 -21.5t81.5 -37.5t67.5 -56t43.5 -79.5t16.5 -105.5q0 -115 -41 -207t-109 -150.5t-161.5 -97.5t-192 -55.5t-207.5 -16.5h-63l-113 -479 q-10 -45 -10 -67q0 -60 42.5 -85t139.5 -28v-37h-620zM555 750h49q224 0 362 122t138 340q0 120 -57.5 195.5t-180.5 75.5h-139z" />
<glyph unicode="Q" horiz-adv-x="1337" d="M190 672q0 120 25 223q20 88 58.5 178t98 178.5t130 157t162 110.5t188.5 42q81 0 150.5 -29t120 -80t89 -117.5t62 -145.5t35.5 -159.5t12 -163.5q0 -119 -25 -225q-21 -93 -64 -189.5t-103 -187t-143.5 -161.5t-174.5 -103v-156q0 -77 28 -128.5t74 -51.5q28 0 52 20 t40.5 49t32 74.5t24 81.5t19.5 86l6 29l54 -8q-4 -18 -14.5 -61t-16.5 -68.5t-19 -66.5t-25.5 -66.5t-33.5 -56t-44 -48t-55.5 -29.5t-70.5 -12q-58 0 -101 26.5t-66.5 69.5t-34.5 90t-11 97v104q-79 2 -147 32t-117 82t-87.5 118.5t-61.5 145t-34.5 158.5t-11.5 161z M371 436q0 -178 55 -280q19 84 66.5 127t117.5 43q185 0 195 -242q176 137 285 606q53 226 53 410q0 67 -8 124t-27.5 110.5t-50.5 90.5t-81 59.5t-114 22.5q-54 0 -104 -25.5t-88.5 -65.5t-74 -98.5t-60.5 -116t-48 -126.5t-36.5 -121t-26.5 -108q-53 -230 -53 -410z M469 98q69 -69 182 -69q0 103 -24.5 161t-63.5 58q-75 0 -94 -150z" />
<glyph unicode="R" horiz-adv-x="1386" d="M-14 0v37q120 0 178 41t86 162l248 1073q12 49 12 82q0 62 -39.5 81.5t-136.5 22.5v37h508q68 0 109 -1.5t112.5 -9t116.5 -26t92 -48.5t70.5 -81t23.5 -119q0 -88 -33.5 -159.5t-88 -118.5t-129 -79.5t-152.5 -47t-162 -15.5l-2 -4q305 -70 305 -317q0 -64 -47 -363 q-2 -8 -2 -22q0 -66 61 -66q29 0 64.5 42t66 103.5t53 117.5t35.5 98l51 -12q-66 -223 -156 -328t-194 -105q-170 0 -170 197q0 66 26 197.5t26 201.5q0 240 -293 240q-38 0 -56 -2l-127 -545q-16 -66 -16 -106q0 -62 40.5 -91t139.5 -30v-37h-620zM580 862h61 q72 0 142.5 12.5t140 42.5t122 74t85 113t32.5 153q0 60 -15.5 101.5t-40 66t-68 37.5t-87 17t-108.5 4q-84 0 -115 -2z" />
<glyph unicode="S" horiz-adv-x="1214" d="M96 0l164 621h53q-28 -95 -28 -187q0 -83 23.5 -155t68.5 -128.5t117.5 -89t164.5 -32.5q152 0 240 79.5t88 194.5q0 76 -41.5 151.5t-122.5 135.5l-340 248q-174 127 -174 317q0 78 32.5 151t90 129.5t143 91t185.5 34.5q73 0 135 -22t96.5 -48t73.5 -48t70 -22 q14 0 23 2.5t23 12.5t27 35t25 65h37l-174 -610h-54q9 27 21 95.5t12 133.5q0 50 -8 86q-24 106 -110 186t-189 80q-143 0 -227 -73.5t-84 -180.5q0 -69 38 -137t113 -123l359 -262q178 -130 178 -323q0 -82 -36 -160t-98.5 -138.5t-155 -97.5t-198.5 -37q-86 0 -157 23 t-108.5 50t-78 50t-71.5 23q-65 0 -109 -121h-37z" />
<glyph unicode="T" horiz-adv-x="1218" d="M211 0v35q63 0 102.5 7t73.5 27.5t54.5 60t35.5 103.5l289 1250h-107q-59 0 -106.5 -21.5t-84.5 -61.5t-70.5 -109t-60.5 -150t-58 -199h-54q22 97 69.5 293.5t70.5 300.5h1013l-137 -594h-53q1 3 9 34.5t10 40t9.5 39t10 44.5t7.5 41t7 45t4 41t2 43q0 213 -196 213h-95 l-284 -1223q-17 -73 -17 -108q0 -60 40.5 -88t140.5 -29v-35h-625z" />
<glyph unicode="U" horiz-adv-x="1431" d="M285 383q0 91 26 211l162 719q8 36 8 69q0 62 -40 88t-134 29v37h576v-37q-43 0 -74.5 -5t-54.5 -20.5t-37 -30.5t-26.5 -48t-19.5 -58t-18 -75l-176 -762q-24 -113 -24 -203q0 -274 268 -274q75 0 139 29.5t108.5 76t80.5 112t58 128t38 133.5l145 639q41 171 41 233 q0 63 -43.5 92.5t-136.5 32.5v37h510v-35l-2 -2q-144 -15 -195 -50q-47 -33 -73 -119q-12 -37 -35 -140l-152 -664q-22 -96 -47.5 -170.5t-67 -149t-92.5 -123t-125.5 -78.5t-166.5 -30q-217 0 -318.5 110t-101.5 298z" />
<glyph unicode="V" horiz-adv-x="1234" d="M201 1497v39h583v-37q-42 0 -61.5 -0.5t-48.5 -3.5t-42 -10t-27.5 -19.5t-19.5 -32t-5 -47.5q0 -6 2 -59l49 -979l10 2l432 811q72 132 72 213q0 120 -162 125v37h518v-35l-2 -2q-40 -3 -77 -15.5t-65.5 -29.5t-58.5 -47.5t-49.5 -55t-46 -68t-41.5 -70t-41 -76.5 l-606 -1137h-47l-70 1305q-3 63 -10.5 96.5t-29 57.5t-57 31t-99.5 7z" />
<glyph unicode="W" horiz-adv-x="1759" d="M176 1499v37h547v-37q-69 -2 -110.5 -47.5t-41.5 -126.5q0 -6 35 -911h12l406 891q-2 45 -4.5 68.5t-10 49t-19 36.5t-33.5 21.5t-51 13.5t-75 5v37h519v-37q-82 -4 -112 -35.5t-30 -97.5q0 -14 37 -952h15l348 757q49 100 49 183q0 137 -158 145v37h516v-35l-2 -2 q-94 -5 -187.5 -90.5t-162.5 -237.5l-535 -1171h-34l-60 1167l-10 2l-535 -1169h-32l-72 1335q-2 47 -10.5 75.5t-20.5 47t-39.5 27t-56 11t-82.5 3.5z" />
<glyph unicode="X" horiz-adv-x="1300" d="M-178 0v37q46 9 84.5 22t78 38.5t63.5 42.5t68 62t64.5 67t77.5 85l371 418l-129 584q-19 81 -59.5 111t-131.5 32v37h529v-37q-83 0 -118.5 -23.5t-35.5 -78.5q0 -24 10 -76l84 -381l279 313q104 120 104 185q0 35 -31 48t-102 13v37h485v-35l-2 -2q-102 -4 -184 -58.5 t-168 -152.5l-366 -411l145 -648q10 -45 18 -72.5t21.5 -50t26.5 -33.5t39.5 -19.5t53 -11t74.5 -5.5v-37h-591v37h10q91 0 132.5 27t41.5 83q0 24 -6 54l-115 506l-348 -394q-96 -107 -96 -178q0 -98 194 -98h10v-37h-581z" />
<glyph unicode="Y" horiz-adv-x="1218" d="M209 1499v37h561v-37q-87 0 -123.5 -21.5t-36.5 -76.5q0 -11 13 -82l133 -672h8l342 570q33 63 46 110q8 29 8 56q0 16 -3 31q-8 40 -52 62t-124 23q0 5 1 18.5t1 18.5h518v-35l-2 -2q-43 -1 -78.5 -9.5t-65.5 -28.5t-52 -39.5t-47.5 -57.5t-43.5 -68.5t-47 -85.5 l-387 -639q-5 -26 -71 -311q-18 -60 -18 -103q0 -41 16 -67q32 -52 159 -53v-37h-622v37q66 0 104.5 6t72.5 26.5t54.5 59.5t36.5 104l78 312l-154 760q-7 36 -12 55.5t-13.5 43.5t-18.5 36t-25 25t-37 18.5t-50.5 10t-68.5 5.5z" />
<glyph unicode="Z" horiz-adv-x="1218" d="M0 0l1094 1483h-156q-136 0 -235 -34t-169.5 -107.5t-116.5 -166.5t-89 -233h-37q21 95 67.5 291.5t69.5 302.5h944l-1104 -1483h183q209 0 333.5 48.5t201 161.5t130.5 325h39l-135 -588h-1020z" />
<glyph unicode="[" horiz-adv-x="681" d="M-98 -469l463 2005h391l-13 -51h-284l-441 -1903h285l-12 -51h-389z" />
<glyph unicode="\" horiz-adv-x="569" d="M143 1475h68l399 -1508h-67z" />
<glyph unicode="]" horiz-adv-x="657" d="M-98 -469l12 51h283l440 1903h-285l13 51h391l-465 -2005h-389z" />
<glyph unicode="`" horiz-adv-x="1738" d="M428 1516h188l205 -373h-73z" />
<glyph unicode="a" horiz-adv-x="1112" d="M72 379q0 103 42.5 220t110.5 215t163.5 163t191.5 65q63 0 107.5 -45t57.5 -131h5l38 158h166l-184 -799q-14 -42 -14 -116q0 -82 41 -82q135 0 245 426l43 -13q-56 -225 -133 -341.5t-172 -116.5q-53 0 -88 31.5t-48 75t-13 97.5q0 26 4 62h-4q-61 -130 -135 -198 t-152 -68q-109 0 -190.5 113.5t-81.5 283.5zM227 221q0 -96 33 -145t94 -49q68 0 135 78.5t113.5 193t75.5 242.5t29 229q0 115 -38 171t-91 56q-71 0 -139 -93t-112.5 -222.5t-72 -256.5t-27.5 -204z" />
<glyph unicode="b" horiz-adv-x="944" d="M94 375q0 81 25 194l176 785q6 24 6 47q0 49 -38.5 70.5t-121.5 21.5h-12v37h377l-150 -649l6 -2q107 163 244 163q62 0 110.5 -24.5t77 -63t47 -91.5t25 -103t6.5 -105q0 -108 -34.5 -225t-95 -217.5t-153 -165.5t-196.5 -65q-81 0 -140.5 30t-93 84.5t-49.5 123.5 t-16 155zM240 268q0 -40 6 -77t20.5 -77t46 -63.5t76.5 -23.5q59 0 110.5 41.5t86.5 110.5t62.5 151.5t43 171t23.5 163.5t8 134q0 84 -29.5 141t-101.5 57q-49 0 -101 -44t-92 -108t-68.5 -129t-39.5 -114q-51 -216 -51 -334z" />
<glyph unicode="c" d="M72 379q0 104 40 220t106.5 215t164.5 163.5t203 64.5q101 0 166 -65t65 -168q0 -62 -32.5 -104.5t-92.5 -42.5q-46 0 -68 29.5t-22 72.5q0 39 28 80t66 41q25 0 25 33q0 36 -46.5 59.5t-88.5 23.5q-69 0 -130 -62t-101.5 -155.5t-70.5 -203t-43.5 -203t-13.5 -156.5 q0 -69 40 -132.5t104 -63.5q107 0 197 109.5t157 324.5l41 -13q-149 -464 -395 -464q-79 0 -138.5 33t-93.5 90t-50.5 125.5t-16.5 148.5z" />
<glyph unicode="d" horiz-adv-x="1103" d="M72 365q0 100 30.5 201.5t82 185t116 150t136.5 103.5t138 37q134 0 173 -172h6l110 488q4 24 4 37q0 62 -42.5 82t-131.5 22v37h377l-301 -1311q-14 -49 -14 -112q0 -86 47 -86q127 0 237 426l43 -13q-107 -458 -299 -458q-56 0 -92.5 35t-49.5 82t-13 104q0 33 2 47h-4 q-122 -268 -279 -268q-74 0 -129 33t-86 89.5t-46 121.5t-15 139zM227 221q0 -96 33 -145t94 -49q68 0 135 81.5t113.5 199.5t75.5 249.5t29 233.5q0 100 -34.5 153t-90.5 53q-75 0 -144.5 -93t-113.5 -222t-70.5 -255.5t-26.5 -205.5z" />
<glyph unicode="e" d="M72 369q0 78 23 169t69 180t106.5 161.5t143.5 117.5t172 45q108 0 163.5 -45t55.5 -145q0 -72 -41 -129.5t-121 -114.5q-57 -40 -163.5 -80.5t-221.5 -64.5q-31 -117 -31 -221q0 -217 144 -217q110 0 209 111.5t165 322.5l41 -13q-73 -227 -180.5 -345.5t-234.5 -118.5 q-95 0 -165 59.5t-102 145.5t-32 182zM266 508q131 21 248 96q75 48 117.5 122.5t42.5 164.5q0 52 -22.5 81t-65.5 29q-105 0 -186.5 -124.5t-133.5 -368.5z" />
<glyph unicode="f" horiz-adv-x="643" d="M-389 -264q0 61 41.5 113.5t99.5 52.5q41 0 71 -29t30 -70q0 -56 -27.5 -85t-73.5 -29q-30 0 -43.5 -8t-13.5 -31q0 -42 37 -69t104 -27q24 0 46 7t38.5 16.5t32.5 29.5t26.5 35t22.5 45t18 47.5t16 55t14 54.5t13 58l242 1077h-231v45h239q13 54 24 92.5t31 95.5 t41 97.5t53.5 85t69.5 72.5t88 46.5t109 18.5q112 0 173 -61.5t61 -167.5q0 -58 -33 -101t-90 -43q-44 0 -68 29.5t-24 71.5q0 36 12.5 59t30.5 33.5t36 17.5t30.5 18t12.5 29q0 34 -43 52t-84 18q-151 0 -215 -268l-47 -195h236v-45h-244q-35 -186 -197 -864 q-19 -80 -43.5 -154t-64 -158.5t-84.5 -146t-108.5 -102.5t-133.5 -41q-112 0 -171.5 62t-59.5 161z" />
<glyph unicode="g" horiz-adv-x="995" d="M8 -260q0 67 38 104t87 37q39 0 69.5 -29.5t30.5 -70.5q0 -105 -92 -105q-41 0 -41 -22q0 -43 40 -71.5t110 -28.5q48 0 87 16t78.5 55t73 115t58.5 186l49 219q-1 0 -4 1t-4 1q-51 -78 -120 -121.5t-132 -43.5q-135 0 -202.5 96.5t-67.5 249.5q0 92 23.5 192t69.5 192.5 t106 166.5t139.5 118.5t164.5 44.5q68 0 120.5 -50t62.5 -136h10l37 168h166l-232 -1010q-53 -229 -180 -365t-309 -136q-117 0 -176.5 66t-59.5 161zM231 221q0 -95 33 -144.5t92 -49.5q73 0 141 75.5t114 190t73 247.5t27 251q0 96 -39.5 151t-89.5 55q-65 0 -124 -65 t-99 -161.5t-70 -206.5t-44 -200.5t-14 -142.5z" />
<glyph unicode="h" horiz-adv-x="1042" d="M10 0l303 1300q17 73 17 103q0 54 -41 75t-131 21v37h377l-238 -1024h8q11 22 38.5 76.5t49 96t53 99t60.5 99t61.5 80t65.5 59t63 20.5q83 0 125.5 -67t42.5 -168q0 -88 -28 -170l-107 -305q-55 -168 -55 -244q0 -61 35 -61q143 0 268 428l45 -13q-66 -225 -146 -342.5 t-167 -117.5q-58 0 -96 33.5t-53 83.5t-15 114q0 92 30 184l115 324v2q0 1 1 3t1 3q47 121 47 195q0 73 -51 73q-38 0 -113 -102t-145 -240q-184 -363 -223 -530l-29 -125h-168z" />
<glyph unicode="i" horiz-adv-x="679" d="M20 672q16 52 41.5 110t59.5 119t77 101t83 40q58 0 99 -41t58 -98t17 -123q0 -59 -17 -112l-127 -365q-47 -134 -47 -217q0 -63 43 -63q138 0 264 430l39 -13q-135 -458 -303 -458q-84 0 -125 69t-41 172q0 83 25 156l117 342q1 2 8 23t13 39.5t13 44.5t11 51.5t4 46.5 q0 75 -53 75q-55 0 -134 -141q-46 -85 -84 -201zM436 1374q0 51 32.5 94t82.5 43q39 0 62.5 -31t23.5 -71q0 -51 -32.5 -94t-82.5 -43q-39 0 -62.5 31t-23.5 71z" />
<glyph unicode="j" horiz-adv-x="598" d="M-324 -268q0 58 39.5 106.5t94.5 48.5q40 0 70 -27.5t30 -68.5q0 -50 -34.5 -86.5t-76.5 -36.5q-8 0 -19 2t-13 2q-11 0 -11 -22q0 -41 39.5 -68.5t106.5 -27.5q41 0 73.5 19.5t52.5 46t37.5 72.5t25.5 78.5t19.5 85.5t16.5 74l182 734q33 129 33 239q0 98 -39 98 q-35 0 -69.5 -38.5t-61 -99.5t-42.5 -107t-28 -90l-41 12q98 364 242 364q64 0 107.5 -44t61 -103.5t17.5 -128.5q0 -56 -12 -100l-133 -543q-76 -306 -183 -458t-253 -152q-115 0 -173.5 55.5t-58.5 163.5zM397 1372q0 51 32.5 94t82.5 43q37 0 61.5 -30.5t24.5 -71.5 q0 -50 -32 -93.5t-83 -43.5q-86 0 -86 102z" />
<glyph unicode="k" horiz-adv-x="1005" d="M31 0l315 1352q6 24 6 45q0 54 -43.5 78t-132.5 24h-12v37h389l-219 -952q63 2 116 32t85 86q23 39 59.5 119t46.5 101q61 120 156 120q78 0 123 -46t45 -124q0 -60 -34.5 -102.5t-96.5 -42.5q-39 0 -67 30.5t-28 69.5q0 41 25 76t63 35q33 0 33 25q0 14 -18 24t-45 10 q-31 0 -62 -24t-53 -72l-82 -176q-24 -52 -56.5 -88t-82.5 -68v-4q96 -13 153.5 -57t57.5 -117q0 -13 -4 -41l-45 -211q-5 -35 -5 -41q0 -69 54 -69q58 0 126.5 110t119.5 314l43 -13q-57 -225 -136 -341.5t-174 -116.5q-83 0 -133.5 52t-50.5 128q0 29 4 43l33 155 q12 69 12 82q0 28 -10 46.5t-23.5 28.5t-42 15t-51.5 6t-65 1l-123 -539h-170z" />
<glyph unicode="l" horiz-adv-x="571" d="M63 221q0 82 29 232l199 843q12 46 12 84q0 59 -39.5 89t-136.5 30v37h385l-305 -1311q-14 -63 -14 -110q0 -88 47 -88q56 0 122 114t117 312l43 -13q-116 -458 -303 -458q-156 0 -156 239z" />
<glyph unicode="m" horiz-adv-x="1613" d="M20 676q108 375 242 375q59 0 101 -47.5t59.5 -113t17.5 -138.5q0 -62 -10 -101l-18 -76l6 -2q187 469 323 469q50 0 87 -27t57 -72t29.5 -93.5t9.5 -99.5q0 -60 -31 -177h6q92 232 184 350.5t162 118.5q90 0 137.5 -71.5t47.5 -175.5q0 -77 -23 -142l-119 -350 q0 -1 -7 -21.5t-12.5 -40t-12.5 -46t-11 -53.5t-4 -48q0 -67 43 -67q141 0 266 426l43 -13q-64 -224 -143.5 -341t-165.5 -117q-58 0 -97.5 36t-55 88t-15.5 117q0 76 25 156l116 342q1 3 11.5 33t17.5 52t14 55.5t7 58.5q0 77 -62 77q-37 0 -82.5 -47t-85 -113t-81 -154 t-68 -153t-49.5 -127q-72 -192 -93 -284l-28 -119h-164l158 664q36 162 36 241q0 92 -45 92h-2q-33 -1 -74.5 -48.5t-78.5 -113t-77 -154t-65.5 -152t-48.5 -126.5q-62 -166 -86 -284l-24 -119h-170l151 664q0 1 1 2t1 2q37 170 37 243q0 95 -45 95q-33 0 -67.5 -41 t-61 -100t-44.5 -112t-26 -89z" />
<glyph unicode="n" horiz-adv-x="1140" d="M20 676q47 182 108 274t132 92q60 0 102 -41.5t60 -102.5t18 -134q0 -60 -12 -113l-31 -139h9q108 226 157 308q9 16 19 32q126 190 202 190q59 0 101 -42.5t60 -101t18 -124.5q0 -53 -17 -106l-127 -365q-4 -10 -13.5 -42t-20.5 -84t-11 -87q0 -63 35 -63q143 0 268 426 l43 -13q-64 -223 -144 -340.5t-167 -117.5q-84 0 -123 68t-39 169q0 83 25 160l119 342q1 2 8 23t13 39.5t13 44.5t11 51.5t4 46.5q0 71 -52 71q-38 0 -110.5 -89t-155.5 -257q-175 -351 -215 -526l-28 -125h-168l155 670q0 1 1 3.5t1 4.5q33 175 33 233q0 90 -41 90 q-34 0 -68.5 -38.5t-61 -98.5t-43.5 -107.5t-28 -90.5z" />
<glyph unicode="o" horiz-adv-x="921" d="M72 403q0 74 15.5 156.5t50.5 168t83.5 153.5t122.5 111.5t160 43.5q89 0 157 -33.5t108.5 -93t60.5 -135t20 -164.5q0 -75 -16.5 -158t-53 -166.5t-87 -149.5t-125.5 -107q-72 -39 -154 -39h-8q-112 2 -189 59.5t-111 147.5t-34 206zM229 304q-1 -17 -1 -33 q0 -57 8 -101q10 -58 46 -97.5t95 -39.5q180 0 282 436q9 38 16.5 79.5t15.5 105.5q6 45 6 86q1 18 -1 34q-4 56 -16 108q-14 50 -48 80q-33 29 -84 29h-3q-179 -3 -281 -434q-13 -58 -22.5 -117.5t-12.5 -135.5z" />
<glyph unicode="p" horiz-adv-x="1083" d="M-150 -428q45 0 68 2t48 9t37.5 22.5t24.5 41.5t21 68l215 949q37 152 37 235q0 94 -45 94q-50 0 -109 -98t-92 -231l-39 12q36 150 104 254t136 104q79 0 124.5 -68t53.5 -192h8q59 128 135 197t154 69q60 0 108 -20t80 -54.5t53 -82t30.5 -100.5t9.5 -113 q0 -145 -41.5 -274.5t-108.5 -218t-152 -140t-171 -51.5q-169 0 -211 182h-9l-108 -469q-6 -27 -6 -45q0 -38 24.5 -54.5t71.5 -21.5l92 -6v-41h-543v41zM365 266q0 -115 45.5 -177t111.5 -62q72 0 136.5 90.5t104 218.5t62.5 255t23 212q0 95 -31 145.5t-90 50.5 q-48 0 -94 -32.5t-79 -80.5t-61.5 -110t-45 -112.5t-27.5 -96.5q-2 -8 -11.5 -47t-13 -53.5t-11 -49t-10.5 -55t-6 -47.5t-3 -49z" />
<glyph unicode="q" horiz-adv-x="976" d="M78 391q0 78 18 164.5t57 173.5t92.5 156.5t132.5 113t169 43.5q144 0 229 -98q25 -31 58 -31q58 0 84 111h43l-304 -1311q-6 -27 -6 -49q0 -52 37.5 -71t116.5 -21v-41h-522v41q103 0 142.5 31.5t66.5 138.5l106 434h-8q-58 -100 -123 -147t-125 -47q-61 0 -109 25 t-76.5 65t-46.5 95t-25 109.5t-7 114.5zM213 238q0 -201 139 -211q50 0 103 46.5t94 116t71.5 140.5t45.5 129q45 190 45 311q0 227 -144 227q-55 0 -106.5 -46.5t-88.5 -120.5t-60 -136t-40 -123q-59 -216 -59 -333z" />
<glyph unicode="r" horiz-adv-x="894" d="M20 674q8 29 17 57t26 75t37.5 84.5t46 74t57.5 57t66 20.5q32 0 57.5 -10.5t42.5 -27t30 -42.5t20 -50t11.5 -58.5t6 -58.5t2.5 -58l9 -2q128 307 276 307q85 0 128.5 -59t43.5 -143q0 -53 -32.5 -96.5t-90.5 -43.5q-43 0 -69.5 30t-26.5 71q0 86 78 112q3 1 13.5 4 t15.5 5.5t10.5 8.5t5.5 15q0 17 -21.5 34t-56.5 17q-68 0 -146 -115.5t-151 -334.5q-60 -177 -111 -410l-30 -137h-168l133 569q57 242 57 338q0 90 -43 90q-32 0 -66 -38t-60.5 -94.5t-45.5 -108.5t-29 -92z" />
<glyph unicode="s" horiz-adv-x="792" d="M43 229q0 67 32 105.5t83 38.5q38 0 67 -30t29 -67q0 -50 -26 -80t-70 -30q-23 0 -23 -27q0 -42 58 -77t126 -35q86 0 142.5 46t56.5 117q0 81 -74 158l-213 223q-73 76 -73 177q0 115 89.5 204.5t215.5 89.5q114 0 186 -69t72 -164q0 -55 -29.5 -100t-81.5 -45 q-38 0 -67 27t-29 71q0 36 27.5 66t64.5 30q31 0 31 31q0 43 -55 75.5t-113 32.5q-82 0 -133 -43.5t-51 -109.5q0 -71 67 -144l219 -231q82 -85 82 -193q0 -119 -94 -206.5t-237 -87.5q-110 0 -194.5 67.5t-84.5 179.5z" />
<glyph unicode="t" horiz-adv-x="610" d="M68 979v45q139 0 244.5 79.5t146.5 223.5h45l-76 -303h250v-45h-258l-174 -750q-17 -87 -17 -118q0 -80 52 -80q118 0 241 420l45 -11q-76 -253 -146 -355.5t-165 -102.5q-168 0 -168 213q0 81 25 186l139 598h-184z" />
<glyph unicode="u" horiz-adv-x="1132" d="M20 678q11 41 34.5 96.5t57.5 118.5t80.5 106t92.5 43q80 0 120.5 -65.5t40.5 -171.5q0 -94 -30 -193l-107 -331q-39 -120 -39 -187t45 -67q54 0 134.5 118t151.5 275t123.5 291t66.5 188q9 34 28 125h170l-184 -799q0 -1 -1 -2.5t-1 -3.5q-17 -85 -17 -117q0 -73 41 -73 q133 0 242 422l43 -11q-113 -458 -299 -458q-156 0 -156 227q0 100 35 244l23 88h-10q-238 -559 -398 -559q-44 0 -77.5 19t-52 52.5t-27.5 73t-9 84.5q0 74 23 145l112 359q50 144 50 211q0 69 -45 69q-31 0 -67 -39.5t-66 -99t-49.5 -106.5t-32.5 -84z" />
<glyph unicode="v" horiz-adv-x="913" d="M20 676q35 152 111.5 259t149.5 107q60 0 100.5 -44.5t56 -105t15.5 -130.5t-15 -119l-96 -334q-16 -58 -16 -123q0 -159 104 -159q56 0 111.5 52.5t98 133.5t76 173t51 176t17.5 138q0 25 -0.5 38t-4 28t-10.5 22t-19 12t-31 5q-46 0 -68 39t-22 88q0 43 21 72.5 t65 29.5q48 0 78 -37.5t39.5 -84.5t9.5 -103q0 -88 -19 -196.5t-56.5 -219.5t-87.5 -203t-119 -150t-144 -58q-57 0 -101 30.5t-69.5 81.5t-38 109.5t-12.5 120.5q0 79 18 137l61 207q0 1 5.5 20t11.5 45t12.5 57t11 65t4.5 60q0 82 -43 82q-50 0 -112.5 -96t-97.5 -233z " />
<glyph unicode="w" horiz-adv-x="1343" d="M20 676q7 32 19.5 72.5t35.5 94t49 96.5t63 73t75 30q63 0 105.5 -43.5t59.5 -104.5t17 -134q0 -78 -18 -133l-94 -312q-31 -119 -31 -200q0 -90 45 -90q54 0 109 58t101 155t82.5 200.5t66.5 218.5q8 28 88 367h168l-150 -643q-33 -149 -33 -227q0 -127 76 -127 q77 0 147.5 79t115.5 192t71.5 227.5t28.5 195.5q0 40 -15.5 60t-38.5 22q-102 7 -102 129q0 46 27 74t73 28q111 0 111 -184q0 -67 -10.5 -153t-31.5 -184.5t-57 -192t-81 -169.5t-109 -122.5t-137 -46.5q-56 0 -96 30t-60 80.5t-28.5 102.5t-8.5 110v25l-8 2 q-71 -186 -149 -269t-152 -83q-48 0 -84.5 23.5t-57 63t-30.5 85.5t-10 96q0 72 18 127l88 289q45 139 45 237q0 96 -55 96q-35 0 -68.5 -38t-58.5 -97.5t-40 -105.5t-25 -88z" />
<glyph unicode="x" horiz-adv-x="1048" d="M-16 172q0 62 28 109t90 47q35 0 57.5 -26t22.5 -56q0 -42 -23 -76.5t-67 -34.5q-31 0 -31 -29q0 -34 34 -56.5t73 -22.5q45 0 84.5 31.5t67.5 86.5t49.5 112t36.5 125t22 107.5t12 77.5q1 8 7.5 52t11 90.5t4.5 87.5q0 200 -111 200q-63 0 -136.5 -102t-106.5 -231 l-43 14q42 152 124.5 258t174.5 106q197 0 249 -251h7q16 39 27 64.5t34 64.5t46 62t57 40.5t73 17.5q73 0 119.5 -57t46.5 -133q0 -71 -29 -117.5t-84 -46.5q-36 0 -59 24t-23 62q0 36 27.5 70.5t69.5 34.5q39 0 39 32t-35 63.5t-70 31.5q-41 0 -78 -29t-63.5 -78 t-47.5 -102.5t-35.5 -116t-22.5 -103t-13 -77.5q-31 -198 -31 -295q0 -77 24 -126.5t75 -49.5q68 0 152 103.5t147 318.5l43 -15q-62 -218 -156 -335t-190 -117q-99 0 -160.5 68t-85.5 177h-8q-17 -37 -27 -58.5t-35 -62t-48.5 -63.5t-58.5 -42t-73 -19q-76 0 -130 54.5 t-54 135.5z" />
<glyph unicode="y" horiz-adv-x="1013" d="M6 678q11 42 34 97t57.5 118.5t80.5 106t92 42.5q57 0 94.5 -38t51.5 -91.5t14 -121.5q0 -83 -22 -162q-103 -336 -103 -330q-1 -3 -7 -26t-10 -40.5t-9 -43t-8 -49.5t-3 -44q0 -69 37 -69q54 0 134.5 118t151 275t123 291t66.5 188q13 48 29 125h174l-246 -1055 q-15 -65 -42 -128t-69 -123t-93 -105t-119.5 -72.5t-143.5 -27.5q-101 0 -173 56t-72 163q0 69 35.5 108t89.5 39q35 0 62.5 -27.5t27.5 -70.5q0 -50 -30.5 -78.5t-80.5 -28.5h-2q-7 -1 -11 -2.5t-7 -5.5t-3 -12q0 -44 52 -72t110 -28q118 0 185 91.5t114 299.5l135 594 l-8 2q-46 -108 -87.5 -193t-95.5 -175t-109 -140.5t-105 -50.5q-58 0 -96.5 34.5t-54 84.5t-15.5 112q0 64 23 143l108 359q45 129 45 211q0 69 -41 69q-31 0 -67 -39.5t-66 -99t-49.5 -106.5t-32.5 -84z" />
<glyph unicode="z" horiz-adv-x="851" d="M-4 51q0 107 145 264q129 136 221 197q125 83 202.5 146.5t97 86.5t53.5 68l-10 6q-3 -2 -14.5 -14t-21 -20.5t-24.5 -18.5t-33 -15.5t-37 -5.5q-52 0 -106 41q-19 14 -53 49t-61.5 55.5t-51.5 20.5q-57 0 -92.5 -55.5t-69.5 -181.5l-43 12q53 170 92 229q83 127 203 127 q31 0 75 -23t79 -65q79 -94 117 -94q51 0 71.5 15t22.5 47q0 12 -15.5 28t-15.5 27q0 47 39 47q22 0 36.5 -9.5t14.5 -27.5q0 -63 -37 -138.5t-94.5 -143t-117.5 -123.5t-115 -95q-28 -21 -96 -62t-117 -79.5t-84 -85.5l2 -4q21 6 51 6q51 0 151.5 -49t155.5 -49 q50 0 78.5 22.5t58.5 77.5q27 51 64 187l45 -9q-55 -224 -82 -282q-80 -178 -217 -178q-38 0 -79.5 30.5t-72 66.5t-72 66.5t-79.5 30.5q-97 0 -97 -70q0 -11 10.5 -33.5t10.5 -35.5q0 -37 -43 -37q-45 0 -45 51z" />
<glyph unicode="{" horiz-adv-x="739" d="M119 -303q0 46 16 121l107 458q22 102 22 132q0 42 -29.5 65.5t-107.5 40.5l10 41q44 9 74.5 18t53 24.5t35 27t23.5 39t16 45.5t15 61l111 479q16 72 40.5 122.5t54.5 82.5t73.5 50t91 25t113.5 7l-13 -49q-47 0 -82 -6.5t-60.5 -23t-42.5 -34t-30 -49t-21 -58 t-18 -71.5l-98 -420q-32 -140 -72 -201.5t-135 -86.5l-2 -5q55 -17 78 -48t23 -83q0 -44 -25 -157l-98 -422q-23 -105 -23 -137q0 -54 36.5 -79.5t129.5 -25.5l-12 -49q-133 0 -193.5 35t-60.5 131z" />
<glyph unicode="|" horiz-adv-x="454" d="M238 -512v2048h81v-2048h-81z" />
<glyph unicode="}" horiz-adv-x="739" d="M-98 -469l12 49q29 0 53.5 2t45 8.5t36 11.5t29 18t22.5 21t18 28t14 30.5t12.5 37t10.5 40t11 45.5l98 422q32 140 72 201.5t135 86.5l2 5q-54 17 -77 48t-23 83q0 49 24 157l99 420q20 85 20 129q0 57 -36.5 85t-127.5 28l13 49q133 0 193 -35t60 -131q0 -46 -16 -121 l-104 -456q-3 -14 -8.5 -38t-8.5 -37t-5.5 -28.5t-2.5 -27.5q0 -42 29.5 -66t107.5 -41l-10 -41q-122 -24 -156 -63t-59 -146q-1 -5 -2 -8l-111 -479q-20 -89 -51 -146t-78.5 -87.5t-103 -42t-137.5 -11.5z" />
<glyph unicode="&#xa4;" horiz-adv-x="1273" d="M96 483l207 232q-86 128 -86 289q0 157 86 288q-38 44 -113.5 126.5t-93.5 103.5l80 92l205 -234q116 99 252 99q139 0 258 -99l203 234l77 -92l-204 -230q86 -133 86 -288q0 -162 -86 -289l204 -232l-77 -90l-203 232q-115 -97 -258 -97q-140 0 -252 97l-205 -232z M332 1006q0 -92 38.5 -172t108.5 -129.5t156 -49.5q131 0 217 104t86 247q0 141 -86.5 243.5t-216.5 102.5q-126 0 -221 -109q-82 -109 -82 -237z" />
<glyph unicode="&#xa6;" horiz-adv-x="739" d="M90 -334l195 844l104 -25l-196 -843zM348 788l197 846l102 -24l-194 -844z" />
<glyph unicode="&#xa7;" horiz-adv-x="999" d="M113 -240q0 39 25 73t65 34q43 0 73.5 -29.5t30.5 -73.5q0 -27 -8.5 -45.5t-19 -26t-19 -16t-8.5 -16.5q0 -18 23 -28.5t49 -10.5q80 0 130 58t50 157q0 123 -109 377q-74 168 -109.5 279t-35.5 221q0 35 5 72.5t18.5 77.5t33.5 71.5t53 51.5t74 20t82 -13 q-88 241 -88 324q0 105 69 189.5t169 84.5q79 0 148 -50.5t69 -129.5q0 -35 -23 -63.5t-59 -28.5q-42 0 -70.5 28t-28.5 70q0 22 6.5 38.5t14 23.5t14 14.5t6.5 13.5q0 20 -24.5 29.5t-54.5 9.5q-60 0 -91.5 -38t-31.5 -105q0 -132 211 -647q63 -151 63 -307q0 -48 -11 -96 t-33 -93.5t-63 -73.5t-94 -28q-21 0 -53 4q31 -118 31 -205q0 -70 -15 -135t-46 -122.5t-86 -92.5t-126 -35q-86 0 -146 56t-60 132zM346 838q0 -139 86 -371q51 -134 100 -194t107 -60q80 0 80 111q0 134 -84 372q-51 138 -99 199t-106 61q-84 0 -84 -118z" />
<glyph unicode="&#xa8;" horiz-adv-x="978" d="M311 1278q0 51 32.5 94t82.5 43q39 0 62.5 -31t23.5 -71q0 -51 -32.5 -94t-82.5 -43q-39 0 -62.5 31t-23.5 71zM707 1278q0 51 32 94t82 43q39 0 62.5 -31t23.5 -71q0 -51 -32 -94t-82 -43q-39 0 -62.5 31t-23.5 71z" />
<glyph unicode="&#xa9;" horiz-adv-x="1716" d="M244 1430l12 202h440l11 -202h-25q-15 172 -137 172h-21v-480q0 -56 45 -59q5 0 15.5 -1t15.5 -1v-31h-248v31l31 2q45 3 45 59v480h-20q-123 0 -138 -172h-26zM788 1030v31l33 2q45 3 45 59v418q0 56 -47 59q-5 0 -15.5 1.5t-15.5 1.5v30h183l141 -448l148 448h174v-26 l-29 -4q-47 -6 -47 -60v-420q0 -56 47 -59q5 0 14.5 -1t14.5 -1v-31h-236v31l31 2q45 3 45 59v445l-178 -539h-15l-174 539v-445q0 -56 47 -59q5 0 15.5 -1t15.5 -1v-31h-197z" />
<glyph unicode="&#xab;" horiz-adv-x="817" d="M51 500l371 344q4 -4 18 -27l-229 -317l113 -318l-15 -32zM389 502l371 344q4 -4 18 -27l-229 -317l113 -318l-15 -30z" />
<glyph unicode="&#xac;" horiz-adv-x="1738" d="M264 866v82h1176v-549h-82v467h-1094z" />
<glyph unicode="&#xad;" horiz-adv-x="788" d="M123 629v78h543v-78h-543z" />
<glyph unicode="&#xae;" horiz-adv-x="1556" d="M164 674q0 118 46 233t125 205.5t195 146.5t246 56q164 0 303.5 -88.5t219 -236t79.5 -316.5q0 -120 -46 -235.5t-124 -204t-191.5 -143t-240.5 -54.5q-117 0 -229 51.5t-196 137t-135.5 203.5t-51.5 245zM217 674q0 -144 70.5 -278t201 -221t287.5 -87q110 0 212.5 48.5 t176.5 128.5t118 187.5t44 221.5q0 105 -41.5 210.5t-112.5 190t-175.5 137t-221.5 52.5q-150 0 -279.5 -81.5t-204.5 -217.5t-75 -291zM436 672q0 79 19.5 155.5t58.5 143.5t107 108t155 41q84 0 139 -43q49 -43 66 -43q19 0 29 26t10 50h27v-352h-27q0 76 -31.5 151.5 t-89 126.5t-123.5 51q-49 0 -87.5 -18t-62 -52t-39.5 -72.5t-23.5 -89.5t-10 -92t-2.5 -91q0 -41 1 -70.5t5.5 -73.5t13 -75t24.5 -66t38 -56.5t56 -35.5t77 -14q120 0 182.5 81t65.5 209l39 -2q0 -138 -74.5 -230.5t-212.5 -92.5q-330 0 -330 426z" />
<glyph unicode="&#xb0;" horiz-adv-x="706" d="M90 1325q0 120 74.5 205.5t187.5 85.5q114 0 188 -86t74 -205t-74 -205t-188 -86q-110 0 -194 94q-68 90 -68 197zM215 1325q0 -67 38.5 -116.5t98.5 -49.5q61 0 98 50t37 116q0 67 -37 115.5t-98 48.5q-62 0 -99.5 -49t-37.5 -115z" />
<glyph unicode="&#xb1;" horiz-adv-x="1404" d="M96 84v104h1186v-104h-1186zM98 834v106h549v403h107v-403h542v-106h-542v-404h-107v404h-549z" />
<glyph unicode="&#xb4;" horiz-adv-x="1738" d="M588 1143l317 368h195l-436 -368h-76z" />
<glyph unicode="&#xb6;" horiz-adv-x="1056" d="M369 1196q0 124 67 235t182.5 178.5t249.5 67.5h439l-11 -51h-122l-377 -1626h-66l377 1626h-209l-377 -1626h-65l202 881q-133 11 -211.5 93.5t-78.5 221.5z" />
<glyph unicode="&#xb7;" horiz-adv-x="526" d="M162 688q0 49 27.5 83t74.5 34t76 -34t29 -83q0 -48 -29.5 -82.5t-75.5 -34.5q-47 0 -74.5 34t-27.5 83z" />
<glyph unicode="&#xb8;" horiz-adv-x="1705" d="M350 -393q0 16 10.5 20t36.5 4h37q22 0 53 6t66.5 18.5t59.5 37t24 55.5q0 29 -22.5 45.5t-63.5 16.5q-26 0 -109 -25l123 215h60l-76 -123q44 10 100 10q62 0 107 -32t45 -93q0 -50 -34.5 -90t-87 -62.5t-108 -34t-104.5 -11.5q-117 0 -117 43z" />
<glyph unicode="&#xba;" horiz-adv-x="743" d="M92 1085q0 98 34.5 198.5t106 173.5t162.5 73q118 0 182 -84.5t64 -216.5q0 -157 -76 -285q-90 -156 -237 -153q-236 6 -236 294zM211 993q0 -168 96 -168q121 0 189 308q26 110 26 196q0 85 -24 125.5t-74 38.5q-121 -3 -188 -303q-25 -109 -25 -197z" />
<glyph unicode="&#xbb;" horiz-adv-x="817" d="M25 182l229 318l-115 317l15 31l260 -348l-371 -346zM362 184l230 318l-115 317l15 31l260 -348l-371 -344z" />
<glyph unicode="&#xbf;" d="M168 274q0 61 13.5 117t32.5 98.5t58 97t69.5 91t88.5 100.5q166 186 229 344l52 -8q-18 -76 -160 -330q-119 -213 -161 -327.5t-42 -218.5q0 -36 5 -67t17.5 -64t40 -52.5t66.5 -19.5q67 0 132.5 53t104 130t38.5 147q0 15 -15 21t-36 9.5t-42 12t-36 34.5t-15 70 q0 42 28 73t75 31q45 0 79.5 -42t34.5 -117q0 -78 -25.5 -160t-70.5 -153t-117 -116.5t-155 -45.5q-139 0 -214 76.5t-75 215.5zM635 1341q0 49 32.5 91.5t82.5 42.5q45 0 74.5 -33.5t29.5 -83.5q0 -49 -32.5 -91t-82.5 -42q-45 0 -74.5 33t-29.5 83z" />
<glyph unicode="&#xc0;" horiz-adv-x="1255" d="M-164 0v37q154 3 244 129q41 60 151 260l613 1110h139l53 -1282q2 -67 10.5 -104.5t32.5 -65t65 -37t111 -10.5v-37h-645v37q47 0 76.5 2t64.5 9.5t54.5 22.5t33 42.5t13.5 66.5q0 6 -16 387h-465l-113 -200q-80 -143 -80 -228q0 -61 36.5 -81.5t125.5 -20.5v-37h-504z M395 621h439l-31 696h-19zM635 2028h188l205 -373h-74z" />
<glyph unicode="&#xc1;" horiz-adv-x="1255" d="M-164 0v37q154 3 244 129q41 60 151 260l613 1110h139l53 -1282q2 -67 10.5 -104.5t32.5 -65t65 -37t111 -10.5v-37h-645v37q47 0 76.5 2t64.5 9.5t54.5 22.5t33 42.5t13.5 66.5q0 6 -16 387h-465l-113 -200q-80 -143 -80 -228q0 -61 36.5 -81.5t125.5 -20.5v-37h-504z M395 621h439l-31 696h-19zM741 1655l318 368h194l-436 -368h-76z" />
<glyph unicode="&#xc2;" horiz-adv-x="1255" d="M-164 0v37q154 3 244 129q41 60 151 260l613 1110h139l53 -1282q2 -67 10.5 -104.5t32.5 -65t65 -37t111 -10.5v-37h-645v37q47 0 76.5 2t64.5 9.5t54.5 22.5t33 42.5t13.5 66.5q0 6 -16 387h-465l-113 -200q-80 -143 -80 -228q0 -61 36.5 -81.5t125.5 -20.5v-37h-504z M395 621h439l-31 696h-19zM629 1655l352 360h143l158 -360h-51l-213 250l-332 -250h-57z" />
<glyph unicode="&#xc3;" horiz-adv-x="1255" d="M-164 0v37q154 3 244 129q41 60 151 260l613 1110h139l53 -1282q2 -67 10.5 -104.5t32.5 -65t65 -37t111 -10.5v-37h-645v37q47 0 76.5 2t64.5 9.5t54.5 22.5t33 42.5t13.5 66.5q0 6 -16 387h-465l-113 -200q-80 -143 -80 -228q0 -61 36.5 -81.5t125.5 -20.5v-37h-504z M395 621h439l-31 696h-19zM584 1688q31 89 97 144.5t153 55.5q49 0 127.5 -47t128.5 -47q47 0 75 24.5t60 77.5h59q-36 -88 -101.5 -148t-150.5 -60q-52 0 -133.5 47t-132.5 47q-41 0 -77 -27.5t-50 -66.5h-55z" />
<glyph unicode="&#xc4;" horiz-adv-x="1255" d="M-164 0v37q154 3 244 129q41 60 151 260l613 1110h139l53 -1282q2 -67 10.5 -104.5t32.5 -65t65 -37t111 -10.5v-37h-645v37q47 0 76.5 2t64.5 9.5t54.5 22.5t33 42.5t13.5 66.5q0 6 -16 387h-465l-113 -200q-80 -143 -80 -228q0 -61 36.5 -81.5t125.5 -20.5v-37h-504z M395 621h439l-31 696h-19zM637 1790q0 51 32.5 94t82.5 43q39 0 62.5 -31t23.5 -71q0 -51 -32.5 -94t-82.5 -43q-39 0 -62.5 31t-23.5 71zM1032 1790q0 51 32.5 94t82.5 43q39 0 62.5 -31t23.5 -71q0 -51 -32.5 -94t-82.5 -43q-39 0 -62.5 31t-23.5 71z" />
<glyph unicode="&#xc5;" horiz-adv-x="1255" d="M-164 0v37q154 3 244 129q41 60 151 260l613 1110h139l53 -1282q2 -67 10.5 -104.5t32.5 -65t65 -37t111 -10.5v-37h-645v37q47 0 76.5 2t64.5 9.5t54.5 22.5t33 42.5t13.5 66.5q0 6 -16 387h-465l-113 -200q-80 -143 -80 -228q0 -61 36.5 -81.5t125.5 -20.5v-37h-504z M395 621h439l-31 696h-19zM737 1847q0 83 58 141t141 58q82 0 140.5 -58.5t58.5 -140.5q0 -83 -58.5 -140.5t-140.5 -57.5q-84 0 -141.5 57.5t-57.5 140.5zM799 1847q0 -59 39.5 -98t97.5 -39q57 0 97 39.5t40 97.5q0 57 -40 97.5t-97 40.5q-58 0 -97.5 -40.5t-39.5 -97.5z " />
<glyph unicode="&#xc6;" horiz-adv-x="1914" d="M-213 0l8 37h19q77 0 141.5 42.5t140.5 139.5l989 1204q-9 39 -44.5 57.5t-104.5 18.5h-18l8 37h1067l-103 -455h-53l16 76q16 59 9.5 118t-28 106t-67.5 76.5t-108 29.5h-354l-150 -662h80q156 0 228.5 56.5t107.5 212.5l16 67h53l-167 -739h-54l19 78q34 153 -13 212.5 t-204 59.5h-78l-162 -719h377q60 0 113 24.5t91 63.5t69 93t50.5 107.5t32.5 111.5l17 75h53l-119 -528h-1092l9 37h24q106 0 155.5 42t74.5 150l122 543h-344l-456 -553q-19 -22 -34.5 -45.5t-32 -58t-1 -56.5t65.5 -22h39l-9 -37h-399zM655 825h322l123 539z" />
<glyph unicode="&#xc7;" horiz-adv-x="1251" d="M190 553q0 114 24 233.5t67.5 231t107.5 211t140 173t170.5 116.5t193.5 43q72 0 133 -22.5t93.5 -49.5t64.5 -49.5t55 -22.5q68 0 107 121h34l-151 -649q-6 0 -26.5 1t-26.5 1q22 74 22 172q0 80 -16.5 155.5t-49.5 142t-91 106.5t-134 40q-128 0 -232 -123.5 t-173 -326.5q-44 -127 -83.5 -303.5t-39.5 -335.5q0 -391 285 -391q88 0 160 32t119.5 82t85.5 124.5t59 144t40 157.5l54 -2q-16 -91 -41 -170.5t-67.5 -159t-97.5 -135t-136 -90.5t-178 -35q-90 0 -168 35.5t-133 94t-94 133.5t-58 155.5t-19 159.5zM399 -393 q0 16 10.5 20t36.5 4h37q22 0 53 6t66.5 18.5t59.5 37t24 55.5q0 29 -22.5 45.5t-63.5 16.5q-25 0 -108 -25l122 215h60l-76 -123q44 10 100 10q62 0 107 -32t45 -93q0 -50 -34.5 -90t-87 -62.5t-108 -34t-104.5 -11.5q-117 0 -117 43z" />
<glyph unicode="&#xc8;" horiz-adv-x="1292" d="M-20 0v37q121 0 181 40t87 156l250 1080q8 33 8 67q0 63 -41.5 89.5t-136.5 29.5v37h1042l-133 -565h-53q37 174 37 256q0 121 -67 188.5t-230 67.5h-199l-152 -645h68q34 0 61 2t50.5 7.5t41 11t33.5 18.5t26.5 23t21.5 31t18 36.5t16 46t15 52.5t16 62h53l-174 -745 h-53l8 37q29 131 29 194q0 79 -39.5 124.5t-136.5 45.5h-64l-127 -546q-18 -70 -18 -103q0 -41 28.5 -61.5t98.5 -20.5h41q229 0 351.5 126.5t190.5 408.5h54q-22 -95 -68.5 -289.5t-69.5 -298.5h-1064zM653 2028h189l205 -373h-74z" />
<glyph unicode="&#xc9;" horiz-adv-x="1292" d="M-20 0v37q121 0 181 40t87 156l250 1080q8 33 8 67q0 63 -41.5 89.5t-136.5 29.5v37h1042l-133 -565h-53q37 174 37 256q0 121 -67 188.5t-230 67.5h-199l-152 -645h68q34 0 61 2t50.5 7.5t41 11t33.5 18.5t26.5 23t21.5 31t18 36.5t16 46t15 52.5t16 62h53l-174 -745 h-53l8 37q29 131 29 194q0 79 -39.5 124.5t-136.5 45.5h-64l-127 -546q-18 -70 -18 -103q0 -41 28.5 -61.5t98.5 -20.5h41q229 0 351.5 126.5t190.5 408.5h54q-22 -95 -68.5 -289.5t-69.5 -298.5h-1064zM760 1655l317 368h195l-436 -368h-76z" />
<glyph unicode="&#xca;" horiz-adv-x="1292" d="M-20 0v37q121 0 181 40t87 156l250 1080q8 33 8 67q0 63 -41.5 89.5t-136.5 29.5v37h1042l-133 -565h-53q37 174 37 256q0 121 -67 188.5t-230 67.5h-199l-152 -645h68q34 0 61 2t50.5 7.5t41 11t33.5 18.5t26.5 23t21.5 31t18 36.5t16 46t15 52.5t16 62h53l-174 -745 h-53l8 37q29 131 29 194q0 79 -39.5 124.5t-136.5 45.5h-64l-127 -546q-18 -70 -18 -103q0 -41 28.5 -61.5t98.5 -20.5h41q229 0 351.5 126.5t190.5 408.5h54q-22 -95 -68.5 -289.5t-69.5 -298.5h-1064zM647 1655l352 360h144l157 -360h-51l-213 250l-331 -250h-58z" />
<glyph unicode="&#xcb;" horiz-adv-x="1292" d="M-20 0v37q121 0 181 40t87 156l250 1080q8 33 8 67q0 63 -41.5 89.5t-136.5 29.5v37h1042l-133 -565h-53q37 174 37 256q0 121 -67 188.5t-230 67.5h-199l-152 -645h68q34 0 61 2t50.5 7.5t41 11t33.5 18.5t26.5 23t21.5 31t18 36.5t16 46t15 52.5t16 62h53l-174 -745 h-53l8 37q29 131 29 194q0 79 -39.5 124.5t-136.5 45.5h-64l-127 -546q-18 -70 -18 -103q0 -41 28.5 -61.5t98.5 -20.5h41q229 0 351.5 126.5t190.5 408.5h54q-22 -95 -68.5 -289.5t-69.5 -298.5h-1064zM676 1790q0 51 32.5 94t82.5 43q39 0 62.5 -31t23.5 -71 q0 -51 -32.5 -94t-82.5 -43q-39 0 -62.5 31t-23.5 71zM1071 1790q0 51 32.5 94t82.5 43q39 0 62.5 -31t23.5 -71q0 -51 -32.5 -94t-82.5 -43q-39 0 -62.5 31t-23.5 71z" />
<glyph unicode="&#xcc;" horiz-adv-x="753" d="M-33 0v37q58 0 95 4t69.5 15.5t52.5 34.5t35.5 57.5t28.5 87.5l248 1073q8 36 8 67q0 65 -44.5 92.5t-142.5 30.5v37h646v-35l-2 -2q-77 0 -124 -10.5t-78.5 -39.5t-49 -70t-33.5 -113l-232 -1000q-16 -72 -16 -112q0 -66 43.5 -91.5t149.5 -25.5v-37h-654zM426 2028h188 l205 -373h-74z" />
<glyph unicode="&#xcd;" horiz-adv-x="753" d="M-33 0v37q58 0 95 4t69.5 15.5t52.5 34.5t35.5 57.5t28.5 87.5l248 1073q8 36 8 67q0 65 -44.5 92.5t-142.5 30.5v37h646v-35l-2 -2q-77 0 -124 -10.5t-78.5 -39.5t-49 -70t-33.5 -113l-232 -1000q-16 -72 -16 -112q0 -66 43.5 -91.5t149.5 -25.5v-37h-654zM530 1655 l318 368h194l-436 -368h-76z" />
<glyph unicode="&#xce;" horiz-adv-x="753" d="M-33 0v37q58 0 95 4t69.5 15.5t52.5 34.5t35.5 57.5t28.5 87.5l248 1073q8 36 8 67q0 65 -44.5 92.5t-142.5 30.5v37h646v-35l-2 -2q-77 0 -124 -10.5t-78.5 -39.5t-49 -70t-33.5 -113l-232 -1000q-16 -72 -16 -112q0 -66 43.5 -91.5t149.5 -25.5v-37h-654zM338 1655 l352 360h144l157 -360h-51l-213 250l-332 -250h-57z" />
<glyph unicode="&#xcf;" horiz-adv-x="753" d="M-33 0v37q58 0 95 4t69.5 15.5t52.5 34.5t35.5 57.5t28.5 87.5l248 1073q8 36 8 67q0 65 -44.5 92.5t-142.5 30.5v37h646v-35l-2 -2q-77 0 -124 -10.5t-78.5 -39.5t-49 -70t-33.5 -113l-232 -1000q-16 -72 -16 -112q0 -66 43.5 -91.5t149.5 -25.5v-37h-654zM387 1790 q0 51 32.5 94t82.5 43q39 0 62.5 -31t23.5 -71q0 -51 -32.5 -94t-82.5 -43q-39 0 -62.5 31t-23.5 71zM782 1790q0 51 32.5 94t82.5 43q39 0 62.5 -31t23.5 -71q0 -51 -32.5 -94t-82.5 -43q-39 0 -62.5 31t-23.5 71z" />
<glyph unicode="&#xd1;" horiz-adv-x="1398" d="M-53 0v37q72 1 124 20.5t86 60.5t55 91t38 125l215 928q12 54 12 98q0 119 -82 135q-28 4 -98 4v37h330l448 -1159l209 887q12 47 12 88q0 142 -172 147v37h500v-35l-2 -2q-127 -5 -191.5 -55.5t-93.5 -177.5l-288 -1266h-31l-494 1282l-221 -948q-27 -118 -27 -166 q0 -64 36 -97.5t126 -33.5v-37h-491zM614 1688q31 89 97 144.5t153 55.5q49 0 127.5 -47t128.5 -47q47 0 75 24.5t60 77.5h60q-36 -88 -101.5 -148t-150.5 -60q-52 0 -133.5 47t-132.5 47q-41 0 -77 -27.5t-50 -66.5h-56z" />
<glyph unicode="&#xd2;" horiz-adv-x="1355" d="M190 600q0 155 35 295q27 112 82 224.5t134 213.5t189 164.5t230 63.5q96 0 175 -32t134.5 -89t94.5 -136t57 -171.5t18 -196.5q0 -159 -34 -295q-27 -112 -82 -224.5t-134 -213.5t-189 -164.5t-230 -63.5q-96 0 -175 32t-135 89t-94.5 136t-57 171.5t-18.5 196.5z M379 436q0 -407 280 -407q63 0 119.5 32.5t100 90t78.5 122.5t63 145.5t45.5 142t32.5 128.5q53 226 53 410q0 67 -8 124t-27.5 110.5t-50.5 90.5t-81 59.5t-114 22.5q-54 0 -104 -25.5t-88.5 -65.5t-74 -98.5t-60.5 -116t-48 -126.5t-36.5 -121t-26.5 -108 q-53 -226 -53 -410zM686 2028h188l205 -373h-73z" />
<glyph unicode="&#xd3;" horiz-adv-x="1355" d="M190 600q0 155 35 295q27 112 82 224.5t134 213.5t189 164.5t230 63.5q96 0 175 -32t134.5 -89t94.5 -136t57 -171.5t18 -196.5q0 -159 -34 -295q-27 -112 -82 -224.5t-134 -213.5t-189 -164.5t-230 -63.5q-96 0 -175 32t-135 89t-94.5 136t-57 171.5t-18.5 196.5z M379 436q0 -407 280 -407q63 0 119.5 32.5t100 90t78.5 122.5t63 145.5t45.5 142t32.5 128.5q53 226 53 410q0 67 -8 124t-27.5 110.5t-50.5 90.5t-81 59.5t-114 22.5q-54 0 -104 -25.5t-88.5 -65.5t-74 -98.5t-60.5 -116t-48 -126.5t-36.5 -121t-26.5 -108 q-53 -226 -53 -410zM750 1655l317 368h195l-437 -368h-75z" />
<glyph unicode="&#xd4;" horiz-adv-x="1355" d="M190 600q0 155 35 295q27 112 82 224.5t134 213.5t189 164.5t230 63.5q96 0 175 -32t134.5 -89t94.5 -136t57 -171.5t18 -196.5q0 -159 -34 -295q-27 -112 -82 -224.5t-134 -213.5t-189 -164.5t-230 -63.5q-96 0 -175 32t-135 89t-94.5 136t-57 171.5t-18.5 196.5z M379 436q0 -407 280 -407q63 0 119.5 32.5t100 90t78.5 122.5t63 145.5t45.5 142t32.5 128.5q53 226 53 410q0 67 -8 124t-27.5 110.5t-50.5 90.5t-81 59.5t-114 22.5q-54 0 -104 -25.5t-88.5 -65.5t-74 -98.5t-60.5 -116t-48 -126.5t-36.5 -121t-26.5 -108 q-53 -226 -53 -410zM598 1655l352 360h144l157 -360h-51l-213 250l-332 -250h-57z" />
<glyph unicode="&#xd5;" horiz-adv-x="1355" d="M190 600q0 155 35 295q27 112 82 224.5t134 213.5t189 164.5t230 63.5q96 0 175 -32t134.5 -89t94.5 -136t57 -171.5t18 -196.5q0 -159 -34 -295q-27 -112 -82 -224.5t-134 -213.5t-189 -164.5t-230 -63.5q-96 0 -175 32t-135 89t-94.5 136t-57 171.5t-18.5 196.5z M379 436q0 -407 280 -407q63 0 119.5 32.5t100 90t78.5 122.5t63 145.5t45.5 142t32.5 128.5q53 226 53 410q0 67 -8 124t-27.5 110.5t-50.5 90.5t-81 59.5t-114 22.5q-54 0 -104 -25.5t-88.5 -65.5t-74 -98.5t-60.5 -116t-48 -126.5t-36.5 -121t-26.5 -108 q-53 -226 -53 -410zM553 1688q31 89 97 144.5t153 55.5q49 0 127.5 -47t128.5 -47q47 0 75 24.5t60 77.5h59q-36 -88 -101.5 -148t-150.5 -60q-52 0 -133.5 47t-132.5 47q-41 0 -77 -27.5t-50 -66.5h-55z" />
<glyph unicode="&#xd6;" horiz-adv-x="1355" d="M190 600q0 155 35 295q27 112 82 224.5t134 213.5t189 164.5t230 63.5q96 0 175 -32t134.5 -89t94.5 -136t57 -171.5t18 -196.5q0 -159 -34 -295q-27 -112 -82 -224.5t-134 -213.5t-189 -164.5t-230 -63.5q-96 0 -175 32t-135 89t-94.5 136t-57 171.5t-18.5 196.5z M379 436q0 -407 280 -407q63 0 119.5 32.5t100 90t78.5 122.5t63 145.5t45.5 142t32.5 128.5q53 226 53 410q0 67 -8 124t-27.5 110.5t-50.5 90.5t-81 59.5t-114 22.5q-54 0 -104 -25.5t-88.5 -65.5t-74 -98.5t-60.5 -116t-48 -126.5t-36.5 -121t-26.5 -108 q-53 -226 -53 -410zM645 1790q0 51 32.5 94t82.5 43q39 0 62.5 -31t23.5 -71q0 -51 -32.5 -94t-82.5 -43q-39 0 -62.5 31t-23.5 71zM1040 1790q0 51 32.5 94t82.5 43q39 0 62.5 -31t23.5 -71q0 -51 -32.5 -94t-82.5 -43q-39 0 -62.5 31t-23.5 71z" />
<glyph unicode="&#xd7;" horiz-adv-x="1011" d="M123 995l49 52l332 -332l327 327l48 -47l-328 -327l338 -338l-49 -51l-338 339l-330 -329l-47 47l330 330z" />
<glyph unicode="&#xd9;" horiz-adv-x="1431" d="M285 383q0 91 26 211l162 719q8 36 8 69q0 62 -40 88t-134 29v37h576v-37q-43 0 -74.5 -5t-54.5 -20.5t-37 -30.5t-26.5 -48t-19.5 -58t-18 -75l-176 -762q-24 -113 -24 -203q0 -274 268 -274q75 0 139 29.5t108.5 76t80.5 112t58 128t38 133.5l145 639q41 171 41 233 q0 63 -43.5 92.5t-136.5 32.5v37h510v-35l-2 -2q-144 -15 -195 -50q-47 -33 -73 -119q-12 -37 -35 -140l-152 -664q-22 -96 -47.5 -170.5t-67 -149t-92.5 -123t-125.5 -78.5t-166.5 -30q-217 0 -318.5 110t-101.5 298zM723 2028h188l205 -373h-74z" />
<glyph unicode="&#xda;" horiz-adv-x="1431" d="M285 383q0 91 26 211l162 719q8 36 8 69q0 62 -40 88t-134 29v37h576v-37q-43 0 -74.5 -5t-54.5 -20.5t-37 -30.5t-26.5 -48t-19.5 -58t-18 -75l-176 -762q-24 -113 -24 -203q0 -274 268 -274q75 0 139 29.5t108.5 76t80.5 112t58 128t38 133.5l145 639q41 171 41 233 q0 63 -43.5 92.5t-136.5 32.5v37h510v-35l-2 -2q-144 -15 -195 -50q-47 -33 -73 -119q-12 -37 -35 -140l-152 -664q-22 -96 -47.5 -170.5t-67 -149t-92.5 -123t-125.5 -78.5t-166.5 -30q-217 0 -318.5 110t-101.5 298zM909 1655l318 368h194l-436 -368h-76z" />
<glyph unicode="&#xdb;" horiz-adv-x="1431" d="M285 383q0 91 26 211l162 719q8 36 8 69q0 62 -40 88t-134 29v37h576v-37q-43 0 -74.5 -5t-54.5 -20.5t-37 -30.5t-26.5 -48t-19.5 -58t-18 -75l-176 -762q-24 -113 -24 -203q0 -274 268 -274q75 0 139 29.5t108.5 76t80.5 112t58 128t38 133.5l145 639q41 171 41 233 q0 63 -43.5 92.5t-136.5 32.5v37h510v-35l-2 -2q-144 -15 -195 -50q-47 -33 -73 -119q-12 -37 -35 -140l-152 -664q-22 -96 -47.5 -170.5t-67 -149t-92.5 -123t-125.5 -78.5t-166.5 -30q-217 0 -318.5 110t-101.5 298zM717 1655l352 360h143l158 -360h-51l-213 250 l-332 -250h-57z" />
<glyph unicode="&#xdc;" horiz-adv-x="1431" d="M285 383q0 91 26 211l162 719q8 36 8 69q0 62 -40 88t-134 29v37h576v-37q-43 0 -74.5 -5t-54.5 -20.5t-37 -30.5t-26.5 -48t-19.5 -58t-18 -75l-176 -762q-24 -113 -24 -203q0 -274 268 -274q75 0 139 29.5t108.5 76t80.5 112t58 128t38 133.5l145 639q41 171 41 233 q0 63 -43.5 92.5t-136.5 32.5v37h510v-35l-2 -2q-144 -15 -195 -50q-47 -33 -73 -119q-12 -37 -35 -140l-152 -664q-22 -96 -47.5 -170.5t-67 -149t-92.5 -123t-125.5 -78.5t-166.5 -30q-217 0 -318.5 110t-101.5 298zM745 1790q0 51 32.5 94t82.5 43q39 0 62.5 -31 t23.5 -71q0 -51 -32.5 -94t-82.5 -43q-39 0 -62.5 31t-23.5 71zM1141 1790q0 51 32 94t82 43q39 0 62.5 -31t23.5 -71q0 -51 -32 -94t-82 -43q-39 0 -62.5 31t-23.5 71z" />
<glyph unicode="&#xdd;" horiz-adv-x="1218" d="M209 1499v37h561v-37q-87 0 -123.5 -21.5t-36.5 -76.5q0 -11 13 -82l133 -672h8l342 570q33 63 46 110t5 87t-52 62t-124 23q0 5 1 18.5t1 18.5h518v-35l-2 -2q-43 -1 -78.5 -9.5t-65.5 -28.5t-52 -39.5t-47.5 -57.5t-43.5 -68.5t-47 -85.5l-387 -639q-5 -26 -71 -311 q-34 -117 -2 -169.5t159 -53.5v-37h-622v37q66 0 104.5 6t72.5 26.5t54.5 59.5t36.5 104l78 312l-154 760q-7 36 -12 55.5t-13.5 43.5t-18.5 36t-25 25t-37 18.5t-50.5 10t-68.5 5.5zM805 1655l317 368h195l-436 -368h-76z" />
<glyph unicode="&#xdf;" horiz-adv-x="1136" d="M-410 -264q0 61 42 113.5t100 52.5q41 0 70.5 -30t29.5 -69q0 -116 -98 -116q-30 0 -45 -6.5t-15 -30.5q0 -41 37.5 -68.5t104.5 -27.5q24 0 46 7t38.5 16.5t32.5 29.5t26.5 35t22.5 45t18 47.5t16 55t14 54.5t13 58l266 1190q27 120 86 214t131.5 147.5t145 80.5 t139.5 27q95 0 170.5 -27.5t124.5 -91t49 -154.5q0 -75 -24 -135.5t-63 -98.5t-85.5 -68t-93 -49t-85.5 -34.5t-63 -31.5t-24 -35q0 -25 21 -59.5t39.5 -56t64.5 -71.5q52 -56 83.5 -95.5t60 -102.5t28.5 -123q0 -66 -23 -127t-66.5 -110.5t-115 -79t-160.5 -29.5 q-96 0 -161.5 48t-65.5 142q0 53 38.5 100t82.5 47q40 0 67 -26t29 -60q2 -39 -12 -63t-35 -32t-42.5 -11.5t-36.5 -8t-15 -14.5q0 -11 16.5 -28t53.5 -33t81 -16q91 0 147 68.5t56 180.5q0 60 -32 121t-78 111.5t-92.5 98t-78.5 96.5t-32 92q0 21 7.5 37t23.5 27.5t30 18.5 t38 17.5t38 17.5q7 3 33.5 15.5t45 22t48.5 29t52 39t47 50.5t40.5 65t26 81t10.5 100q0 91 -42 146t-128 55q-48 0 -89 -15t-71 -38.5t-56 -61t-43 -72t-32.5 -83t-24 -84t-18.5 -83.5q-78 -368 -219 -964q-144 -602 -434 -602q-122 0 -177 60.5t-55 162.5z" />
<glyph unicode="&#xe0;" horiz-adv-x="1112" d="M72 379q0 103 42.5 220t110.5 215t163.5 163t191.5 65q63 0 107.5 -45t57.5 -131h5l38 158h166l-184 -799q-14 -42 -14 -116q0 -82 41 -82q135 0 245 426l43 -13q-56 -225 -133 -341.5t-172 -116.5q-53 0 -88 31.5t-48 75t-13 97.5q0 26 4 62h-4q-61 -130 -135 -198 t-152 -68q-109 0 -190.5 113.5t-81.5 283.5zM227 221q0 -96 33 -145t94 -49q68 0 135 78.5t113.5 193t75.5 242.5t29 229q0 115 -38 171t-91 56q-71 0 -139 -93t-112.5 -222.5t-72 -256.5t-27.5 -204zM360 1516h189l205 -373h-74z" />
<glyph unicode="&#xe1;" horiz-adv-x="1112" d="M72 379q0 103 42.5 220t110.5 215t163.5 163t191.5 65q63 0 107.5 -45t57.5 -131h5l38 158h166l-184 -799q-14 -42 -14 -116q0 -82 41 -82q135 0 245 426l43 -13q-56 -225 -133 -341.5t-172 -116.5q-53 0 -88 31.5t-48 75t-13 97.5q0 26 4 62h-4q-61 -130 -135 -198 t-152 -68q-109 0 -190.5 113.5t-81.5 283.5zM227 221q0 -96 33 -145t94 -49q68 0 135 78.5t113.5 193t75.5 242.5t29 229q0 115 -38 171t-91 56q-71 0 -139 -93t-112.5 -222.5t-72 -256.5t-27.5 -204zM465 1143l317 368h195l-436 -368h-76z" />
<glyph unicode="&#xe2;" horiz-adv-x="1112" d="M72 379q0 103 42.5 220t110.5 215t163.5 163t191.5 65q63 0 107.5 -45t57.5 -131h5l38 158h166l-184 -799q-14 -42 -14 -116q0 -82 41 -82q135 0 245 426l43 -13q-56 -225 -133 -341.5t-172 -116.5q-53 0 -88 31.5t-48 75t-13 97.5q0 26 4 62h-4q-61 -130 -135 -198 t-152 -68q-109 0 -190.5 113.5t-81.5 283.5zM227 221q0 -96 33 -145t94 -49q68 0 135 78.5t113.5 193t75.5 242.5t29 229q0 115 -38 171t-91 56q-71 0 -139 -93t-112.5 -222.5t-72 -256.5t-27.5 -204zM352 1143l353 360h143l158 -360h-52l-213 250l-331 -250h-58z" />
<glyph unicode="&#xe3;" horiz-adv-x="1112" d="M72 379q0 103 42.5 220t110.5 215t163.5 163t191.5 65q63 0 107.5 -45t57.5 -131h5l38 158h166l-184 -799q-14 -42 -14 -116q0 -82 41 -82q135 0 245 426l43 -13q-56 -225 -133 -341.5t-172 -116.5q-53 0 -88 31.5t-48 75t-13 97.5q0 26 4 62h-4q-61 -130 -135 -198 t-152 -68q-109 0 -190.5 113.5t-81.5 283.5zM227 221q0 -96 33 -145t94 -49q68 0 135 78.5t113.5 193t75.5 242.5t29 229q0 115 -38 171t-91 56q-71 0 -139 -93t-112.5 -222.5t-72 -256.5t-27.5 -204zM309 1176q31 89 97 144.5t153 55.5q49 0 127.5 -47t128.5 -47 q47 0 75 24.5t60 77.5h60q-36 -88 -101.5 -148t-150.5 -60q-52 0 -133.5 47t-132.5 47q-41 0 -77 -27.5t-50 -66.5h-56z" />
<glyph unicode="&#xe4;" horiz-adv-x="1112" d="M72 379q0 103 42.5 220t110.5 215t163.5 163t191.5 65q63 0 107.5 -45t57.5 -131h5l38 158h166l-184 -799q-14 -42 -14 -116q0 -82 41 -82q135 0 245 426l43 -13q-56 -225 -133 -341.5t-172 -116.5q-53 0 -88 31.5t-48 75t-13 97.5q0 26 4 62h-4q-61 -130 -135 -198 t-152 -68q-109 0 -190.5 113.5t-81.5 283.5zM227 221q0 -96 33 -145t94 -49q68 0 135 78.5t113.5 193t75.5 242.5t29 229q0 115 -38 171t-91 56q-71 0 -139 -93t-112.5 -222.5t-72 -256.5t-27.5 -204zM381 1278q0 51 32.5 94t82.5 43q39 0 62.5 -31t23.5 -71 q0 -51 -32.5 -94t-82.5 -43q-39 0 -62.5 31t-23.5 71zM776 1278q0 51 32.5 94t82.5 43q39 0 62.5 -31t23.5 -71q0 -51 -32.5 -94t-82.5 -43q-39 0 -62.5 31t-23.5 71z" />
<glyph unicode="&#xe5;" horiz-adv-x="1112" d="M72 379q0 103 42.5 220t110.5 215t163.5 163t191.5 65q63 0 107.5 -45t57.5 -131h5l38 158h166l-184 -799q-14 -42 -14 -116q0 -82 41 -82q135 0 245 426l43 -13q-56 -225 -133 -341.5t-172 -116.5q-53 0 -88 31.5t-48 75t-13 97.5q0 26 4 62h-4q-61 -130 -135 -198 t-152 -68q-109 0 -190.5 113.5t-81.5 283.5zM227 221q0 -96 33 -145t94 -49q68 0 135 78.5t113.5 193t75.5 242.5t29 229q0 115 -38 171t-91 56q-71 0 -139 -93t-112.5 -222.5t-72 -256.5t-27.5 -204zM479 1335q0 83 58 141t141 58q82 0 140.5 -58.5t58.5 -140.5 q0 -83 -58.5 -140.5t-140.5 -57.5q-84 0 -141.5 57.5t-57.5 140.5zM541 1335q0 -59 39.5 -98t97.5 -39q57 0 97 39.5t40 97.5q0 57 -40 97.5t-97 40.5q-58 0 -97.5 -40.5t-39.5 -97.5z" />
<glyph unicode="&#xe6;" horiz-adv-x="1976" d="M72 379q0 103 42.5 220t110.5 215t163.5 163t191.5 65q63 0 107.5 -45t57.5 -131h5l38 158h166l-16 -66q108 84 233 84q108 0 164 -45t56 -145q0 -131 -142.5 -232.5t-404.5 -156.5q-31 -117 -31 -221q0 -217 143 -217q110 0 209.5 112t165.5 322l41 -13 q-73 -226 -181 -345t-235 -119t-205.5 98.5t-91.5 236.5q-53 -158 -141.5 -246.5t-173.5 -88.5q-109 0 -190.5 113.5t-81.5 283.5zM227 221q0 -96 33 -145t94 -49q68 0 135 78.5t113.5 193t75.5 242.5t29 229q0 115 -38 171t-91 56q-71 0 -139 -93t-112.5 -222.5t-72 -256.5 t-27.5 -204zM852 508q176 27 292 130.5t116 252.5q0 52 -22.5 81t-66.5 29q-105 0 -186 -124t-133 -369z" />
<glyph unicode="&#xe7;" d="M72 379q0 104 40 220t106.5 215t164.5 163.5t203 64.5q101 0 166 -65t65 -168q0 -62 -32.5 -104.5t-92.5 -42.5q-46 0 -68 29.5t-22 72.5q0 39 28 80t66 41q25 0 25 33q0 36 -46.5 59.5t-88.5 23.5q-69 0 -130 -62t-101.5 -155.5t-70.5 -203t-43.5 -203t-13.5 -156.5 q0 -69 40 -132.5t104 -63.5q107 0 197 109.5t157 324.5l41 -13q-149 -464 -395 -464q-79 0 -138.5 33t-93.5 90t-50.5 125.5t-16.5 148.5zM121 -393q0 16 10.5 20t36.5 4h37q22 0 53 6t66.5 18.5t59.5 37t24 55.5q0 29 -22.5 45.5t-63.5 16.5q-26 0 -109 -25l123 215h59 l-76 -123q44 10 101 10q62 0 106.5 -32t44.5 -93q0 -50 -34 -90t-87 -62.5t-108 -34t-104 -11.5q-117 0 -117 43z" />
<glyph unicode="&#xe8;" d="M72 369q0 78 23 169t69 180t106.5 161.5t143.5 117.5t172 45q108 0 163.5 -45t55.5 -145q0 -72 -41 -129.5t-121 -114.5q-57 -40 -163.5 -80.5t-221.5 -64.5q-31 -117 -31 -221q0 -217 144 -217q110 0 209 111.5t165 322.5l41 -13q-73 -227 -180.5 -345.5t-234.5 -118.5 q-95 0 -165 59.5t-102 145.5t-32 182zM236 1516h188l205 -373h-74zM266 508q131 21 248 96q75 48 117.5 122.5t42.5 164.5q0 52 -22.5 81t-65.5 29q-105 0 -186.5 -124.5t-133.5 -368.5z" />
<glyph unicode="&#xe9;" d="M72 369q0 78 23 169t69 180t106.5 161.5t143.5 117.5t172 45q108 0 163.5 -45t55.5 -145q0 -72 -41 -129.5t-121 -114.5q-57 -40 -163.5 -80.5t-221.5 -64.5q-31 -117 -31 -221q0 -217 144 -217q110 0 209 111.5t165 322.5l41 -13q-73 -227 -180.5 -345.5t-234.5 -118.5 q-95 0 -165 59.5t-102 145.5t-32 182zM266 508q131 21 248 96q75 48 117.5 122.5t42.5 164.5q0 52 -22.5 81t-65.5 29q-105 0 -186.5 -124.5t-133.5 -368.5zM340 1143l317 368h195l-436 -368h-76z" />
<glyph unicode="&#xea;" d="M72 369q0 78 23 169t69 180t106.5 161.5t143.5 117.5t172 45q108 0 163.5 -45t55.5 -145q0 -72 -41 -129.5t-121 -114.5q-57 -40 -163.5 -80.5t-221.5 -64.5q-31 -117 -31 -221q0 -217 144 -217q110 0 209 111.5t165 322.5l41 -13q-73 -227 -180.5 -345.5t-234.5 -118.5 q-95 0 -165 59.5t-102 145.5t-32 182zM229 1143l353 360h143l158 -360h-52l-213 250l-331 -250h-58zM266 508q131 21 248 96q75 48 117.5 122.5t42.5 164.5q0 52 -22.5 81t-65.5 29q-105 0 -186.5 -124.5t-133.5 -368.5z" />
<glyph unicode="&#xeb;" d="M72 369q0 78 23 169t69 180t106.5 161.5t143.5 117.5t172 45q108 0 163.5 -45t55.5 -145q0 -72 -41 -129.5t-121 -114.5q-57 -40 -163.5 -80.5t-221.5 -64.5q-31 -117 -31 -221q0 -217 144 -217q110 0 209 111.5t165 322.5l41 -13q-73 -227 -180.5 -345.5t-234.5 -118.5 q-95 0 -165 59.5t-102 145.5t-32 182zM258 1278q0 51 32.5 94t82.5 43q39 0 62.5 -31t23.5 -71q0 -51 -32.5 -94t-82.5 -43q-39 0 -62.5 31t-23.5 71zM266 508q131 21 248 96q75 48 117.5 122.5t42.5 164.5q0 52 -22.5 81t-65.5 29q-105 0 -186.5 -124.5t-133.5 -368.5z M653 1278q0 51 32.5 94t82.5 43q39 0 62.5 -31t23.5 -71q0 -51 -32.5 -94t-82.5 -43q-39 0 -62.5 31t-23.5 71z" />
<glyph unicode="&#xec;" horiz-adv-x="679" d="M20 672q16 52 41.5 110t59.5 119t77 101t83 40q58 0 99 -41t58 -98t17 -123q0 -59 -17 -112l-127 -365q-47 -134 -47 -217q0 -63 43 -63q138 0 264 430l39 -13q-135 -458 -303 -458q-84 0 -125 69t-41 172q0 83 25 156l117 342q1 2 8 23t13 39.5t13 44.5t11 51.5t4 46.5 q0 75 -53 75q-55 0 -134 -141q-46 -85 -84 -201zM143 1516h189l205 -373h-74z" />
<glyph unicode="&#xed;" horiz-adv-x="679" d="M20 672q16 52 41.5 110t59.5 119t77 101t83 40q58 0 99 -41t58 -98t17 -123q0 -59 -17 -112l-127 -365q-47 -134 -47 -217q0 -63 43 -63q138 0 264 430l39 -13q-135 -458 -303 -458q-84 0 -125 69t-41 172q0 83 25 156l117 342q1 2 8 23t13 39.5t13 44.5t11 51.5t4 46.5 q0 75 -53 75q-55 0 -134 -141q-46 -85 -84 -201zM248 1143l317 368h195l-436 -368h-76z" />
<glyph unicode="&#xee;" horiz-adv-x="679" d="M20 672q16 52 41.5 110t59.5 119t77 101t83 40q58 0 99 -41t58 -98t17 -123q0 -59 -17 -112l-127 -365q-47 -134 -47 -217q0 -63 43 -63q138 0 264 430l39 -13q-135 -458 -303 -458q-84 0 -125 69t-41 172q0 83 25 156l117 342q1 2 8 23t13 39.5t13 44.5t11 51.5t4 46.5 q0 75 -53 75q-55 0 -134 -141q-46 -85 -84 -201zM35 1143l352 360h143l158 -360h-51l-213 250l-332 -250h-57z" />
<glyph unicode="&#xef;" horiz-adv-x="679" d="M20 672q16 52 41.5 110t59.5 119t77 101t83 40q58 0 99 -41t58 -98t17 -123q0 -59 -17 -112l-127 -365q-47 -134 -47 -217q0 -63 43 -63q138 0 264 430l39 -13q-135 -458 -303 -458q-84 0 -125 69t-41 172q0 83 25 156l117 342q1 2 8 23t13 39.5t13 44.5t11 51.5t4 46.5 q0 75 -53 75q-55 0 -134 -141q-46 -85 -84 -201zM84 1278q0 51 32.5 94t82.5 43q39 0 62.5 -31t23.5 -71q0 -51 -32.5 -94t-82.5 -43q-39 0 -62.5 31t-23.5 71zM479 1278q0 51 32.5 94t82.5 43q39 0 62.5 -31t23.5 -71q0 -51 -32.5 -94t-82.5 -43q-39 0 -62.5 31t-23.5 71z " />
<glyph unicode="&#xf1;" horiz-adv-x="1140" d="M20 676q47 182 108 274t132 92q60 0 102 -41.5t60 -102.5t18 -134q0 -60 -12 -113l-31 -139h9q108 226 157 308q9 16 19 32q126 190 202 190q59 0 101 -42.5t60 -101t18 -124.5q0 -53 -17 -106l-127 -365q-4 -10 -13.5 -42t-20.5 -84t-11 -87q0 -63 35 -63q143 0 268 426 l43 -13q-64 -223 -144 -340.5t-167 -117.5q-84 0 -123 68t-39 169q0 83 25 160l119 342q1 2 8 23t13 39.5t13 44.5t11 51.5t4 46.5q0 71 -52 71q-38 0 -110.5 -89t-155.5 -257q-175 -351 -215 -526l-28 -125h-168l155 670q0 1 1 3.5t1 4.5q33 175 33 233q0 90 -41 90 q-34 0 -68.5 -38.5t-61 -98.5t-43.5 -107.5t-28 -90.5zM324 1176q31 89 96.5 144.5t152.5 55.5q49 0 127.5 -47t128.5 -47q33 0 59 15t41 33.5t36 53.5h59q-36 -88 -101.5 -148t-150.5 -60q-52 0 -133.5 47t-132.5 47q-41 0 -77 -27.5t-50 -66.5h-55z" />
<glyph unicode="&#xf2;" horiz-adv-x="921" d="M72 403q0 74 15.5 156.5t50.5 168t83.5 153.5t122.5 111.5t160 43.5q89 0 157 -33.5t108.5 -93t60.5 -135t20 -164.5q0 -75 -16.5 -158t-53 -166.5t-87 -149.5t-125.5 -107t-162 -39q-112 2 -189 59.5t-111 147.5t-34 206zM229 304.5q-3 -76.5 7.5 -134t46 -97.5 t94.5 -40q180 0 282 436q9 38 16.5 79.5t15.5 106t4.5 120t-16 107t-47 81t-87.5 28.5q-179 -3 -281 -434q-13 -58 -22.5 -117t-12.5 -135.5zM264 1516h189l204 -373h-73z" />
<glyph unicode="&#xf3;" horiz-adv-x="921" d="M72 403q0 74 15.5 156.5t50.5 168t83.5 153.5t122.5 111.5t160 43.5q89 0 157 -33.5t108.5 -93t60.5 -135t20 -164.5q0 -75 -16.5 -158t-53 -166.5t-87 -149.5t-125.5 -107t-162 -39q-112 2 -189 59.5t-111 147.5t-34 206zM229 304.5q-3 -76.5 7.5 -134t46 -97.5 t94.5 -40q180 0 282 436q9 38 16.5 79.5t15.5 106t4.5 120t-16 107t-47 81t-87.5 28.5q-179 -3 -281 -434q-13 -58 -22.5 -117t-12.5 -135.5zM369 1143l317 368h195l-437 -368h-75z" />
<glyph unicode="&#xf4;" horiz-adv-x="921" d="M72 403q0 74 15.5 156.5t50.5 168t83.5 153.5t122.5 111.5t160 43.5q89 0 157 -33.5t108.5 -93t60.5 -135t20 -164.5q0 -75 -16.5 -158t-53 -166.5t-87 -149.5t-125.5 -107t-162 -39q-112 2 -189 59.5t-111 147.5t-34 206zM229 304.5q-3 -76.5 7.5 -134t46 -97.5 t94.5 -40q180 0 282 436q9 38 16.5 79.5t15.5 106t4.5 120t-16 107t-47 81t-87.5 28.5q-179 -3 -281 -434q-13 -58 -22.5 -117t-12.5 -135.5zM258 1143l352 360h144l157 -360h-51l-213 250l-332 -250h-57z" />
<glyph unicode="&#xf5;" horiz-adv-x="921" d="M72 403q0 74 15.5 156.5t50.5 168t83.5 153.5t122.5 111.5t160 43.5q89 0 157 -33.5t108.5 -93t60.5 -135t20 -164.5q0 -75 -16.5 -158t-53 -166.5t-87 -149.5t-125.5 -107t-162 -39q-112 2 -189 59.5t-111 147.5t-34 206zM213 1176q31 89 97 144.5t153 55.5 q49 0 127.5 -47t128.5 -47q47 0 75 24.5t60 77.5h59q-36 -88 -101 -148t-150 -60q-52 0 -134 47t-133 47q-41 0 -77 -27.5t-50 -66.5h-55zM229 304.5q-3 -76.5 7.5 -134t46 -97.5t94.5 -40q180 0 282 436q9 38 16.5 79.5t15.5 106t4.5 120t-16 107t-47 81t-87.5 28.5 q-179 -3 -281 -434q-13 -58 -22.5 -117t-12.5 -135.5z" />
<glyph unicode="&#xf6;" horiz-adv-x="921" d="M72 403q0 74 15.5 156.5t50.5 168t83.5 153.5t122.5 111.5t160 43.5q89 0 157 -33.5t108.5 -93t60.5 -135t20 -164.5q0 -75 -16.5 -158t-53 -166.5t-87 -149.5t-125.5 -107t-162 -39q-112 2 -189 59.5t-111 147.5t-34 206zM229 304.5q-3 -76.5 7.5 -134t46 -97.5 t94.5 -40q180 0 282 436q9 38 16.5 79.5t15.5 106t4.5 120t-16 107t-47 81t-87.5 28.5q-179 -3 -281 -434q-13 -58 -22.5 -117t-12.5 -135.5zM287 1278q0 51 32 94t82 43q39 0 62.5 -31t23.5 -71q0 -51 -32 -94t-82 -43q-39 0 -62.5 31t-23.5 71zM682 1278q0 51 32.5 94 t82.5 43q39 0 62.5 -31t23.5 -71q0 -51 -32.5 -94t-82.5 -43q-39 0 -62.5 31t-23.5 71z" />
<glyph unicode="&#xf7;" horiz-adv-x="1247" d="M123 633v65h1001v-65h-1001zM514 264q0 43 30.5 77t76.5 34q44 0 77 -31.5t33 -77.5q0 -43 -30 -76.5t-76 -33.5q-44 0 -77.5 31t-33.5 77zM514 1059q0 43 30.5 76.5t76.5 33.5q44 0 77 -31t33 -77q0 -43 -30 -77t-76 -34q-44 0 -77.5 31.5t-33.5 77.5z" />
<glyph unicode="&#xf9;" horiz-adv-x="1132" d="M20 678q11 41 34.5 96.5t57.5 118.5t80.5 106t92.5 43q80 0 120.5 -65.5t40.5 -171.5q0 -94 -30 -193l-107 -331q-39 -120 -39 -187t45 -67q54 0 134.5 118t151.5 275t123.5 291t66.5 188q9 34 28 125h170l-184 -799q0 -1 -1 -2.5t-1 -3.5q-17 -85 -17 -117q0 -73 41 -73 q133 0 242 422l43 -11q-113 -458 -299 -458q-156 0 -156 227q0 100 35 244l23 88h-10q-238 -559 -398 -559q-44 0 -77.5 19t-52 52.5t-27.5 73t-9 84.5q0 74 23 145l112 359q50 144 50 211q0 69 -45 69q-31 0 -67 -39.5t-66 -99t-49.5 -106.5t-32.5 -84zM371 1516h188 l205 -373h-74z" />
<glyph unicode="&#xfa;" horiz-adv-x="1132" d="M20 678q11 41 34.5 96.5t57.5 118.5t80.5 106t92.5 43q80 0 120.5 -65.5t40.5 -171.5q0 -94 -30 -193l-107 -331q-39 -120 -39 -187t45 -67q54 0 134.5 118t151.5 275t123.5 291t66.5 188q9 34 28 125h170l-184 -799q0 -1 -1 -2.5t-1 -3.5q-17 -85 -17 -117q0 -73 41 -73 q133 0 242 422l43 -11q-113 -458 -299 -458q-156 0 -156 227q0 100 35 244l23 88h-10q-238 -559 -398 -559q-44 0 -77.5 19t-52 52.5t-27.5 73t-9 84.5q0 74 23 145l112 359q50 144 50 211q0 69 -45 69q-31 0 -67 -39.5t-66 -99t-49.5 -106.5t-32.5 -84zM475 1143l318 368 h194l-436 -368h-76z" />
<glyph unicode="&#xfb;" horiz-adv-x="1132" d="M20 678q11 41 34.5 96.5t57.5 118.5t80.5 106t92.5 43q80 0 120.5 -65.5t40.5 -171.5q0 -94 -30 -193l-107 -331q-39 -120 -39 -187t45 -67q54 0 134.5 118t151.5 275t123.5 291t66.5 188q9 34 28 125h170l-184 -799q0 -1 -1 -2.5t-1 -3.5q-17 -85 -17 -117q0 -73 41 -73 q133 0 242 422l43 -11q-113 -458 -299 -458q-156 0 -156 227q0 100 35 244l23 88h-10q-238 -559 -398 -559q-44 0 -77.5 19t-52 52.5t-27.5 73t-9 84.5q0 74 23 145l112 359q50 144 50 211q0 69 -45 69q-31 0 -67 -39.5t-66 -99t-49.5 -106.5t-32.5 -84zM322 1143l352 360 h143l158 -360h-51l-213 250l-332 -250h-57z" />
<glyph unicode="&#xfc;" horiz-adv-x="1132" d="M20 678q11 41 34.5 96.5t57.5 118.5t80.5 106t92.5 43q80 0 120.5 -65.5t40.5 -171.5q0 -94 -30 -193l-107 -331q-39 -120 -39 -187t45 -67q54 0 134.5 118t151.5 275t123.5 291t66.5 188q9 34 28 125h170l-184 -799q0 -1 -1 -2.5t-1 -3.5q-17 -85 -17 -117q0 -73 41 -73 q133 0 242 422l43 -11q-113 -458 -299 -458q-156 0 -156 227q0 100 35 244l23 88h-10q-238 -559 -398 -559q-44 0 -77.5 19t-52 52.5t-27.5 73t-9 84.5q0 74 23 145l112 359q50 144 50 211q0 69 -45 69q-31 0 -67 -39.5t-66 -99t-49.5 -106.5t-32.5 -84zM371 1278 q0 51 32 94t82 43q39 0 62.5 -31t23.5 -71q0 -51 -32 -94t-82 -43q-39 0 -62.5 31t-23.5 71zM766 1278q0 51 32.5 94t82.5 43q39 0 62.5 -31t23.5 -71q0 -51 -32.5 -94t-82.5 -43q-39 0 -62.5 31t-23.5 71z" />
<glyph unicode="&#xfd;" horiz-adv-x="1013" d="M6 678q11 42 34 97t57.5 118.5t80.5 106t92 42.5q57 0 94.5 -38t51.5 -91.5t14 -121.5q0 -83 -22 -162q-103 -336 -103 -330q-1 -3 -7 -26t-10 -40.5t-9 -43t-8 -49.5t-3 -44q0 -69 37 -69q54 0 134.5 118t151 275t123 291t66.5 188q13 48 29 125h174l-246 -1055 q-15 -65 -42 -128t-69 -123t-93 -105t-119.5 -72.5t-143.5 -27.5q-101 0 -173 56t-72 163q0 69 35.5 108t89.5 39q35 0 62.5 -27.5t27.5 -70.5q0 -50 -30.5 -78.5t-80.5 -28.5h-2q-7 -1 -11 -2.5t-7 -5.5t-3 -12q0 -44 52 -72t110 -28q118 0 185 91.5t114 299.5l135 594 l-8 2q-46 -108 -87.5 -193t-95.5 -175t-109 -140.5t-105 -50.5q-58 0 -96.5 34.5t-54 84.5t-15.5 112q0 64 23 143l108 359q45 129 45 211q0 69 -41 69q-31 0 -67 -39.5t-66 -99t-49.5 -106.5t-32.5 -84zM416 1143l317 368h195l-436 -368h-76z" />
<glyph unicode="&#xff;" horiz-adv-x="1013" d="M6 678q11 42 34 97t57.5 118.5t80.5 106t92 42.5q57 0 94.5 -38t51.5 -91.5t14 -121.5q0 -83 -22 -162q-103 -336 -103 -330q-1 -3 -7 -26t-10 -40.5t-9 -43t-8 -49.5t-3 -44q0 -69 37 -69q54 0 134.5 118t151 275t123 291t66.5 188q13 48 29 125h174l-246 -1055 q-15 -65 -42 -128t-69 -123t-93 -105t-119.5 -72.5t-143.5 -27.5q-101 0 -173 56t-72 163q0 69 35.5 108t89.5 39q35 0 62.5 -27.5t27.5 -70.5q0 -50 -30.5 -78.5t-80.5 -28.5h-2q-7 -1 -11 -2.5t-7 -5.5t-3 -12q0 -44 52 -72t110 -28q118 0 185 91.5t114 299.5l135 594 l-8 2q-46 -108 -87.5 -193t-95.5 -175t-109 -140.5t-105 -50.5q-58 0 -96.5 34.5t-54 84.5t-15.5 112q0 64 23 143l108 359q45 129 45 211q0 69 -41 69q-31 0 -67 -39.5t-66 -99t-49.5 -106.5t-32.5 -84zM332 1278q0 51 32 94t82 43q39 0 62.5 -31t23.5 -71q0 -51 -32 -94 t-82 -43q-39 0 -62.5 31t-23.5 71zM727 1278q0 51 32.5 94t82.5 43q39 0 62.5 -31t23.5 -71q0 -51 -32.5 -94t-82.5 -43q-39 0 -62.5 31t-23.5 71z" />
<glyph unicode="&#x152;" horiz-adv-x="1894" d="M190 600q0 155 35 295q27 112 82 224.5t134 213.5t189 164.5t230 63.5q126 0 205 -25h907l-133 -565h-53q37 174 37 256q0 121 -67 188.5t-230 67.5h-199l-151 -645h67q34 0 61 2t50.5 7.5t41 11t33.5 18.5t26.5 23t21.5 31t18 36.5t16 46t15 52.5t16 62h53l-174 -745 h-53l8 37q29 130 29 194q0 79 -39.5 124.5t-136.5 45.5h-64l-127 -546q-18 -70 -18 -103q0 -41 28.5 -61.5t98.5 -20.5h41q229 0 352 126.5t191 408.5h53q-21 -94 -67 -288.5t-70 -299.5h-840q-70 -25 -137 -25q-96 0 -175 32t-135 89t-94.5 136t-57 171.5t-18.5 196.5z M379 436q0 -407 280 -407q41 0 83 12.5t69 34.5l285 1220q8 33 8 74q0 70 -66 103.5t-168 33.5q-54 0 -104 -25.5t-88.5 -65.5t-74 -98.5t-60.5 -116t-48 -126.5t-36.5 -121t-26.5 -108q-53 -226 -53 -410z" />
<glyph unicode="&#x153;" horiz-adv-x="1785" d="M72 403q0 74 15.5 156.5t50.5 168t83.5 153.5t122.5 111.5t160 43.5q115 0 191.5 -55t115.5 -152q70 98 161 155.5t195 57.5q108 0 163.5 -45t55.5 -145q0 -72 -40.5 -129.5t-120.5 -114.5q-57 -40 -163.5 -80.5t-221.5 -64.5q-31 -117 -31 -221q0 -217 143 -217 q110 0 209.5 112t165.5 322l41 -13q-73 -226 -181 -345t-235 -119q-164 0 -250 168q-122 -163 -296 -160q-112 2 -189 59.5t-111 147.5t-34 206zM229 304.5q-3 -76.5 7.5 -134t46 -97.5t94.5 -40q180 0 282 436q9 38 16.5 79.5t15.5 106t4.5 120t-16 107t-47 81t-87.5 28.5 q-179 -3 -281 -434q-13 -58 -22.5 -117t-12.5 -135.5zM848 508q131 21 248 96q75 48 117 122t42 165q0 52 -22.5 81t-65.5 29q-105 0 -186 -124t-133 -369z" />
<glyph unicode="&#x2c6;" horiz-adv-x="1234" d="M526 1143l353 360h143l158 -360h-52l-213 250l-331 -250h-58z" />
<glyph unicode="&#x2dc;" horiz-adv-x="1705" d="M365 1176q31 89 96.5 144.5t152.5 55.5q49 0 127.5 -47t128.5 -47q33 0 59 15t41 33.5t36 53.5h59q-36 -88 -101.5 -148t-150.5 -60q-52 0 -133.5 47t-132.5 47q-41 0 -77 -27.5t-50 -66.5h-55z" />
<glyph unicode="&#x2000;" horiz-adv-x="1023" />
<glyph unicode="&#x2001;" horiz-adv-x="2046" />
<glyph unicode="&#x2002;" horiz-adv-x="1023" />
<glyph unicode="&#x2003;" horiz-adv-x="2046" />
<glyph unicode="&#x2004;" horiz-adv-x="682" />
<glyph unicode="&#x2005;" horiz-adv-x="511" />
<glyph unicode="&#x2006;" horiz-adv-x="341" />
<glyph unicode="&#x2007;" horiz-adv-x="341" />
<glyph unicode="&#x2008;" horiz-adv-x="255" />
<glyph unicode="&#x2009;" horiz-adv-x="409" />
<glyph unicode="&#x200a;" horiz-adv-x="113" />
<glyph unicode="&#x2010;" horiz-adv-x="788" d="M123 629v78h543v-78h-543z" />
<glyph unicode="&#x2011;" horiz-adv-x="788" d="M123 629v78h543v-78h-543z" />
<glyph unicode="&#x2012;" horiz-adv-x="788" d="M123 629v78h543v-78h-543z" />
<glyph unicode="&#x2013;" horiz-adv-x="1228" d="M102 635v65h1024v-65h-1024z" />
<glyph unicode="&#x2014;" horiz-adv-x="1925" d="M102 635v65h1721v-65h-1721z" />
<glyph unicode="&#x2018;" horiz-adv-x="432" d="M123 1212q0 160 192 349l35 -31q-149 -152 -149 -234q0 -14 5.5 -18t20.5 -4q109 0 109 -103q0 -49 -26.5 -85.5t-69.5 -36.5q-58 0 -87.5 47.5t-29.5 115.5z" />
<glyph unicode="&#x2019;" horiz-adv-x="432" d="M82 1079q149 152 149 234q0 14 -5.5 18t-20.5 4q-109 0 -109 103q0 49 27 86t70 37q57 0 86.5 -48t29.5 -116q0 -159 -192 -348z" />
<glyph unicode="&#x201a;" horiz-adv-x="432" d="M82 -262q149 152 149 233q0 14 -5.5 18.5t-20.5 4.5q-109 0 -109 102q0 49 27 86t70 37q57 0 86.5 -48t29.5 -116q0 -159 -192 -348z" />
<glyph unicode="&#x201c;" horiz-adv-x="729" d="M123 1212q0 160 192 349l35 -31q-149 -152 -149 -234q0 -14 5.5 -18t20.5 -4q109 0 109 -103q0 -49 -26.5 -85.5t-69.5 -36.5q-58 0 -87.5 47.5t-29.5 115.5zM420 1212q0 160 192 349l35 -31q-149 -152 -149 -234q0 -14 5.5 -18t20.5 -4q109 0 109 -103 q0 -49 -26.5 -85.5t-69.5 -36.5q-58 0 -87.5 47.5t-29.5 115.5z" />
<glyph unicode="&#x201d;" horiz-adv-x="729" d="M82 1079q149 152 149 234q0 14 -5.5 18t-20.5 4q-109 0 -109 103q0 49 27 86t70 37q57 0 86.5 -48t29.5 -116q0 -159 -192 -348zM379 1079q149 152 149 234q0 14 -5.5 18t-20.5 4q-109 0 -109 103q0 50 26.5 86.5t69.5 36.5q58 0 87.5 -48t29.5 -116q0 -159 -192 -348z " />
<glyph unicode="&#x201e;" horiz-adv-x="729" d="M123 -262q149 152 149 233q0 14 -5.5 18.5t-20.5 4.5q-109 0 -109 102q0 50 26.5 86.5t69.5 36.5q58 0 87.5 -48t29.5 -116q0 -159 -192 -348zM420 -262q149 152 149 233q0 14 -5.5 18.5t-20.5 4.5q-109 0 -109 102q0 50 26.5 86.5t69.5 36.5q58 0 87.5 -48t29.5 -116 q0 -159 -192 -348z" />
<glyph unicode="&#x2022;" horiz-adv-x="641" d="M123 680q0 82 60 140.5t141 58.5q77 0 135.5 -60t58.5 -137q0 -80 -58.5 -138.5t-137.5 -58.5q-78 0 -138.5 58.5t-60.5 136.5z" />
<glyph unicode="&#x2026;" horiz-adv-x="1935" d="M184 106q0 50 33 92t82 42q48 0 76 -33t28 -82q0 -50 -32.5 -91.5t-81.5 -41.5q-48 0 -76.5 32.5t-28.5 81.5zM852 106q0 50 33 92t82 42q48 0 76 -33t28 -82q0 -50 -33 -91.5t-82 -41.5q-48 0 -76 32.5t-28 81.5zM1520 106q0 50 32.5 92t81.5 42q48 0 76.5 -33t28.5 -82 q0 -50 -33 -91.5t-82 -41.5q-48 0 -76 32.5t-28 81.5z" />
<glyph unicode="&#x202f;" horiz-adv-x="409" />
<glyph unicode="&#x2039;" horiz-adv-x="458" d="M49 500l371 344q4 -4 18 -27l-227 -317l113 -318l-15 -32z" />
<glyph unicode="&#x203a;" horiz-adv-x="450" d="M25 182l227 318l-113 317l15 31l258 -348l-371 -346q-11 13 -16 28z" />
<glyph unicode="&#x205f;" horiz-adv-x="511" />
<glyph unicode="&#x2122;" horiz-adv-x="1556" d="M156 678q0 169 83.5 313t227.5 228t313 84t313 -84t228 -228t84 -313t-84 -313t-228 -228t-313 -84t-313 84t-227.5 228t-83.5 313zM207 678q0 -156 76.5 -288t208.5 -209t288 -77t288 77t209 209t77 288t-77 288t-209 208.5t-288 76.5q-117 0 -223 -45.5t-182.5 -122 t-122 -182.5t-45.5 -223zM440 256v27h17q55 0 75.5 21t20.5 75v606q0 57 -16.5 82.5t-69.5 26.5h-27v24h351q264 0 264 -217q0 -170 -168 -209q70 -29 92 -69q12 -21 41 -153l29 -132q21 -55 81 -55h23v-27h-63q-91 0 -129 53q-25 51 -54 234q-24 137 -112 137h-146v-289 q0 -63 19.5 -85.5t79.5 -22.5h16v-27h-324zM649 715h103q198 0 198 186q0 98 -47.5 141t-148.5 43h-105v-370z" />
<glyph unicode="&#xe000;" horiz-adv-x="1044" d="M0 0v1044h1044v-1044h-1044z" />
</font>
</defs>
</svg>
